solid OpenSCAD_Model
  facet normal -1 0 0
    outer loop
      vertex 0 3 0
      vertex 0 0 0
      vertex 0 3 17
    endloop
  endfacet
  facet normal -1 0 0
    outer loop
      vertex 0 73.5 0
      vertex 0 70.5 3
      vertex 0 73.5 20
    endloop
  endfacet
  facet normal -1 0 0
    outer loop
      vertex 0 73.5 0
      vertex 0 20.5 3
      vertex 0 70.5 3
    endloop
  endfacet
  facet normal -1 0 0
    outer loop
      vertex 0 17.5 17
      vertex 0 20.5 3
      vertex 0 17.5 0
    endloop
  endfacet
  facet normal -1 0 0
    outer loop
      vertex 0 17.5 0
      vertex 0 20.5 3
      vertex 0 73.5 0
    endloop
  endfacet
  facet normal -1 0 0
    outer loop
      vertex 0 70.5 17
      vertex 0 73.5 20
      vertex 0 70.5 3
    endloop
  endfacet
  facet normal -1 0 0
    outer loop
      vertex 0 20.5 17
      vertex 0 73.5 20
      vertex 0 70.5 17
    endloop
  endfacet
  facet normal -1 0 0
    outer loop
      vertex 0 20.5 3
      vertex 0 17.5 17
      vertex 0 20.5 17
    endloop
  endfacet
  facet normal -1 0 0
    outer loop
      vertex 0 0 20
      vertex 0 20.5 17
      vertex 0 17.5 17
    endloop
  endfacet
  facet normal -1 0 0
    outer loop
      vertex 0 0 20
      vertex 0 17.5 17
      vertex 0 3 17
    endloop
  endfacet
  facet normal -1 0 0
    outer loop
      vertex 0 20.5 17
      vertex 0 0 20
      vertex 0 73.5 20
    endloop
  endfacet
  facet normal -1 0 0
    outer loop
      vertex 0 0 20
      vertex 0 3 17
      vertex 0 0 0
    endloop
  endfacet
  facet normal -0 0 1
    outer loop
      vertex 0 73.5 20
      vertex 20 0 20
      vertex 20 73.5 20
    endloop
  endfacet
  facet normal 0 0 1
    outer loop
      vertex 20 0 20
      vertex 0 73.5 20
      vertex 0 0 20
    endloop
  endfacet
  facet normal 1 0 0
    outer loop
      vertex 20 73.5 20
      vertex 20 70.5 17
      vertex 20 73.5 0
    endloop
  endfacet
  facet normal 1 0 0
    outer loop
      vertex 20 73.5 20
      vertex 20 20.5 17
      vertex 20 70.5 17
    endloop
  endfacet
  facet normal 1 0 0
    outer loop
      vertex 20 20.5 17
      vertex 20 17.5 17
      vertex 20 20.5 3
    endloop
  endfacet
  facet normal 1 -0 0
    outer loop
      vertex 20 0 20
      vertex 20 20.5 17
      vertex 20 73.5 20
    endloop
  endfacet
  facet normal 1 0 0
    outer loop
      vertex 20 20.5 17
      vertex 20 0 20
      vertex 20 17.5 17
    endloop
  endfacet
  facet normal 1 0 0
    outer loop
      vertex 20 17.5 17
      vertex 20 0 20
      vertex 20 3 17
    endloop
  endfacet
  facet normal 1 0 0
    outer loop
      vertex 20 0 0
      vertex 20 3 17
      vertex 20 0 20
    endloop
  endfacet
  facet normal 1 0 0
    outer loop
      vertex 20 3 17
      vertex 20 0 0
      vertex 20 3 0
    endloop
  endfacet
  facet normal 1 -0 0
    outer loop
      vertex 20 70.5 3
      vertex 20 73.5 0
      vertex 20 70.5 17
    endloop
  endfacet
  facet normal 1 -0 0
    outer loop
      vertex 20 20.5 3
      vertex 20 73.5 0
      vertex 20 70.5 3
    endloop
  endfacet
  facet normal 1 0 0
    outer loop
      vertex 20 20.5 3
      vertex 20 17.5 0
      vertex 20 73.5 0
    endloop
  endfacet
  facet normal 1 0 0
    outer loop
      vertex 20 17.5 0
      vertex 20 20.5 3
      vertex 20 17.5 17
    endloop
  endfacet
  facet normal 0 1 -0
    outer loop
      vertex 20 73.5 0
      vertex 0 73.5 20
      vertex 20 73.5 20
    endloop
  endfacet
  facet normal 0 1 0
    outer loop
      vertex 0 73.5 20
      vertex 20 73.5 0
      vertex 0 73.5 0
    endloop
  endfacet
  facet normal 0 0 -1
    outer loop
      vertex 0 17.5 0
      vertex 20 73.5 0
      vertex 20 17.5 0
    endloop
  endfacet
  facet normal -0 0 -1
    outer loop
      vertex 20 73.5 0
      vertex 0 17.5 0
      vertex 0 73.5 0
    endloop
  endfacet
  facet normal 0 0 -1
    outer loop
      vertex 0 0 0
      vertex 20 3 0
      vertex 20 0 0
    endloop
  endfacet
  facet normal -0 0 -1
    outer loop
      vertex 20 3 0
      vertex 0 0 0
      vertex 0 3 0
    endloop
  endfacet
  facet normal 0 -1 0
    outer loop
      vertex 0 0 0
      vertex 20 0 20
      vertex 0 0 20
    endloop
  endfacet
  facet normal 0 -1 -0
    outer loop
      vertex 20 0 20
      vertex 0 0 0
      vertex 20 0 0
    endloop
  endfacet
  facet normal 0 0 -1
    outer loop
      vertex 0 3 17
      vertex 20 17.5 17
      vertex 20 3 17
    endloop
  endfacet
  facet normal -0 0 -1
    outer loop
      vertex 20 17.5 17
      vertex 0 3 17
      vertex 0 17.5 17
    endloop
  endfacet
  facet normal 0 -1 0
    outer loop
      vertex 0 17.5 0
      vertex 20 17.5 17
      vertex 0 17.5 17
    endloop
  endfacet
  facet normal 0 -1 -0
    outer loop
      vertex 20 17.5 17
      vertex 0 17.5 0
      vertex 20 17.5 0
    endloop
  endfacet
  facet normal 0 1 -0
    outer loop
      vertex 20 3 0
      vertex 0 3 17
      vertex 20 3 17
    endloop
  endfacet
  facet normal 0 1 0
    outer loop
      vertex 0 3 17
      vertex 20 3 0
      vertex 0 3 0
    endloop
  endfacet
  facet normal 0 0 -1
    outer loop
      vertex 0 20.5 17
      vertex 20 70.5 17
      vertex 20 20.5 17
    endloop
  endfacet
  facet normal -0 0 -1
    outer loop
      vertex 20 70.5 17
      vertex 0 20.5 17
      vertex 0 70.5 17
    endloop
  endfacet
  facet normal 0 -1 0
    outer loop
      vertex 0 70.5 3
      vertex 20 70.5 17
      vertex 0 70.5 17
    endloop
  endfacet
  facet normal 0 -1 -0
    outer loop
      vertex 20 70.5 17
      vertex 0 70.5 3
      vertex 20 70.5 3
    endloop
  endfacet
  facet normal -0 0 1
    outer loop
      vertex 0 70.5 3
      vertex 20 20.5 3
      vertex 20 70.5 3
    endloop
  endfacet
  facet normal 0 0 1
    outer loop
      vertex 20 20.5 3
      vertex 0 70.5 3
      vertex 0 20.5 3
    endloop
  endfacet
  facet normal 0 1 -0
    outer loop
      vertex 20 20.5 3
      vertex 0 20.5 17
      vertex 20 20.5 17
    endloop
  endfacet
  facet normal 0 1 0
    outer loop
      vertex 0 20.5 17
      vertex 20 20.5 3
      vertex 0 20.5 3
    endloop
  endfacet
endsolid OpenSCAD_Model
