solid OpenSCAD_Model
  facet normal 0.994522 0.104529 0
    outer loop
      vertex 11.5 0 20
      vertex 11.2487 2.39098 -20
      vertex 11.2487 2.39098 20
    endloop
  endfacet
  facet normal 0.994522 0.104529 0
    outer loop
      vertex 11.2487 2.39098 -20
      vertex 11.5 0 20
      vertex 11.5 0 -20
    endloop
  endfacet
  facet normal -0.994522 0.104529 0
    outer loop
      vertex -11.5 0 -20
      vertex -11.2487 2.39098 20
      vertex -11.2487 2.39098 -20
    endloop
  endfacet
  facet normal -0.994522 0.104529 0
    outer loop
      vertex -11.2487 2.39098 20
      vertex -11.5 0 -20
      vertex -11.5 0 20
    endloop
  endfacet
  facet normal 0 1 -0
    outer loop
      vertex 1.20208 11.437 -20
      vertex -1.20208 11.437 20
      vertex 1.20208 11.437 20
    endloop
  endfacet
  facet normal 0 1 0
    outer loop
      vertex -1.20208 11.437 20
      vertex 1.20208 11.437 -20
      vertex -1.20208 11.437 -20
    endloop
  endfacet
  facet normal 0 -1 0
    outer loop
      vertex -1.20208 -11.437 -20
      vertex 1.20208 -11.437 20
      vertex -1.20208 -11.437 20
    endloop
  endfacet
  facet normal 0 -1 -0
    outer loop
      vertex 1.20208 -11.437 20
      vertex -1.20208 -11.437 -20
      vertex 1.20208 -11.437 -20
    endloop
  endfacet
  facet normal 0.743145 0.66913 0
    outer loop
      vertex 9.30369 6.75953 20
      vertex 7.695 8.54617 -20
      vertex 7.695 8.54617 20
    endloop
  endfacet
  facet normal 0.743145 0.66913 0
    outer loop
      vertex 7.695 8.54617 -20
      vertex 9.30369 6.75953 20
      vertex 9.30369 6.75953 -20
    endloop
  endfacet
  facet normal 0.951057 0.309017 0
    outer loop
      vertex 11.2487 2.39098 20
      vertex 10.5058 4.67747 -20
      vertex 10.5058 4.67747 20
    endloop
  endfacet
  facet normal 0.951057 0.309017 0
    outer loop
      vertex 10.5058 4.67747 -20
      vertex 11.2487 2.39098 20
      vertex 11.2487 2.39098 -20
    endloop
  endfacet
  facet normal -0.587785 0.809017 0
    outer loop
      vertex -5.75 9.95929 -20
      vertex -7.695 8.54617 20
      vertex -5.75 9.95929 20
    endloop
  endfacet
  facet normal -0.587785 0.809017 0
    outer loop
      vertex -7.695 8.54617 20
      vertex -5.75 9.95929 -20
      vertex -7.695 8.54617 -20
    endloop
  endfacet
  facet normal -0.207912 0.978148 0
    outer loop
      vertex -1.20208 11.437 -20
      vertex -3.55369 10.9371 20
      vertex -1.20208 11.437 20
    endloop
  endfacet
  facet normal -0.207912 0.978148 0
    outer loop
      vertex -3.55369 10.9371 20
      vertex -1.20208 11.437 -20
      vertex -3.55369 10.9371 -20
    endloop
  endfacet
  facet normal 0.866025 -0.5 0
    outer loop
      vertex 9.30369 -6.75953 20
      vertex 10.5058 -4.67747 -20
      vertex 10.5058 -4.67747 20
    endloop
  endfacet
  facet normal 0.866025 -0.5 0
    outer loop
      vertex 10.5058 -4.67747 -20
      vertex 9.30369 -6.75953 20
      vertex 9.30369 -6.75953 -20
    endloop
  endfacet
  facet normal 0.866025 0.5 0
    outer loop
      vertex 10.5058 4.67747 20
      vertex 9.30369 6.75953 -20
      vertex 9.30369 6.75953 20
    endloop
  endfacet
  facet normal 0.866025 0.5 0
    outer loop
      vertex 9.30369 6.75953 -20
      vertex 10.5058 4.67747 20
      vertex 10.5058 4.67747 -20
    endloop
  endfacet
  facet normal 0.406736 0.913546 -0
    outer loop
      vertex 5.75 9.95929 -20
      vertex 3.55369 10.9371 20
      vertex 5.75 9.95929 20
    endloop
  endfacet
  facet normal 0.406736 0.913546 0
    outer loop
      vertex 3.55369 10.9371 20
      vertex 5.75 9.95929 -20
      vertex 3.55369 10.9371 -20
    endloop
  endfacet
  facet normal 0.207912 0.978148 -0
    outer loop
      vertex 3.55369 10.9371 -20
      vertex 1.20208 11.437 20
      vertex 3.55369 10.9371 20
    endloop
  endfacet
  facet normal 0.207912 0.978148 0
    outer loop
      vertex 1.20208 11.437 20
      vertex 3.55369 10.9371 -20
      vertex 1.20208 11.437 -20
    endloop
  endfacet
  facet normal 0.587785 0.809017 -0
    outer loop
      vertex 7.695 8.54617 -20
      vertex 5.75 9.95929 20
      vertex 7.695 8.54617 20
    endloop
  endfacet
  facet normal 0.587785 0.809017 0
    outer loop
      vertex 5.75 9.95929 20
      vertex 7.695 8.54617 -20
      vertex 5.75 9.95929 -20
    endloop
  endfacet
  facet normal -0.866025 0.5 0
    outer loop
      vertex -10.5058 4.67747 -20
      vertex -9.30369 6.75953 20
      vertex -9.30369 6.75953 -20
    endloop
  endfacet
  facet normal -0.866025 0.5 0
    outer loop
      vertex -9.30369 6.75953 20
      vertex -10.5058 4.67747 -20
      vertex -10.5058 4.67747 20
    endloop
  endfacet
  facet normal -0.743145 0.66913 0
    outer loop
      vertex -9.30369 6.75953 -20
      vertex -7.695 8.54617 20
      vertex -7.695 8.54617 -20
    endloop
  endfacet
  facet normal -0.743145 0.66913 0
    outer loop
      vertex -7.695 8.54617 20
      vertex -9.30369 6.75953 -20
      vertex -9.30369 6.75953 20
    endloop
  endfacet
  facet normal -0.951057 0.309017 0
    outer loop
      vertex -11.2487 2.39098 -20
      vertex -10.5058 4.67747 20
      vertex -10.5058 4.67747 -20
    endloop
  endfacet
  facet normal -0.951057 0.309017 0
    outer loop
      vertex -10.5058 4.67747 20
      vertex -11.2487 2.39098 -20
      vertex -11.2487 2.39098 20
    endloop
  endfacet
  facet normal 0 0 1
    outer loop
      vertex 6.25 0 20
      vertex 11.5 0 20
      vertex 11.2487 2.39098 20
    endloop
  endfacet
  facet normal 0 0 1
    outer loop
      vertex 5.9441 1.93136 20
      vertex 11.2487 2.39098 20
      vertex 10.5058 4.67747 20
    endloop
  endfacet
  facet normal 0 0 1
    outer loop
      vertex 11.5 0 20
      vertex 6.25 0 20
      vertex 11.2487 -2.39098 20
    endloop
  endfacet
  facet normal 0 0 1
    outer loop
      vertex 5.05636 3.67366 20
      vertex 10.5058 4.67747 20
      vertex 9.30369 6.75953 20
    endloop
  endfacet
  facet normal -0 0 1
    outer loop
      vertex 5.9441 -1.93136 20
      vertex 11.2487 -2.39098 20
      vertex 6.25 0 20
    endloop
  endfacet
  facet normal 0 0 1
    outer loop
      vertex 5.05636 3.67366 20
      vertex 9.30369 6.75953 20
      vertex 7.695 8.54617 20
    endloop
  endfacet
  facet normal 0 0 1
    outer loop
      vertex 11.2487 -2.39098 20
      vertex 5.9441 -1.93136 20
      vertex 10.5058 -4.67747 20
    endloop
  endfacet
  facet normal -0 0 1
    outer loop
      vertex 5.05636 -3.67366 20
      vertex 10.5058 -4.67747 20
      vertex 5.9441 -1.93136 20
    endloop
  endfacet
  facet normal 0 0 1
    outer loop
      vertex 11.2487 2.39098 20
      vertex 5.9441 1.93136 20
      vertex 6.25 0 20
    endloop
  endfacet
  facet normal 0 0 1
    outer loop
      vertex 3.67366 5.05636 20
      vertex 7.695 8.54617 20
      vertex 5.75 9.95929 20
    endloop
  endfacet
  facet normal 0 0 1
    outer loop
      vertex 10.5058 4.67747 20
      vertex 5.05636 3.67366 20
      vertex 5.9441 1.93136 20
    endloop
  endfacet
  facet normal 0 0 1
    outer loop
      vertex 7.695 8.54617 20
      vertex 3.67366 5.05636 20
      vertex 5.05636 3.67366 20
    endloop
  endfacet
  facet normal 0 0 1
    outer loop
      vertex 1.93136 5.9441 20
      vertex 5.75 9.95929 20
      vertex 3.55369 10.9371 20
    endloop
  endfacet
  facet normal 0 0 1
    outer loop
      vertex 5.75 9.95929 20
      vertex 1.93136 5.9441 20
      vertex 3.67366 5.05636 20
    endloop
  endfacet
  facet normal 0 0 1
    outer loop
      vertex 1.20208 11.437 20
      vertex 1.93136 5.9441 20
      vertex 3.55369 10.9371 20
    endloop
  endfacet
  facet normal 0 0 1
    outer loop
      vertex 1.20208 11.437 20
      vertex 0 6.25 20
      vertex 1.93136 5.9441 20
    endloop
  endfacet
  facet normal -0 0 1
    outer loop
      vertex -1.20208 11.437 20
      vertex 0 6.25 20
      vertex 1.20208 11.437 20
    endloop
  endfacet
  facet normal 0 0 1
    outer loop
      vertex -1.20208 11.437 20
      vertex -1.93136 5.9441 20
      vertex 0 6.25 20
    endloop
  endfacet
  facet normal -0 0 1
    outer loop
      vertex -3.55369 10.9371 20
      vertex -1.93136 5.9441 20
      vertex -1.20208 11.437 20
    endloop
  endfacet
  facet normal -0 0 1
    outer loop
      vertex -5.75 9.95929 20
      vertex -1.93136 5.9441 20
      vertex -3.55369 10.9371 20
    endloop
  endfacet
  facet normal 0 0 1
    outer loop
      vertex -1.93136 5.9441 20
      vertex -5.75 9.95929 20
      vertex -3.67366 5.05636 20
    endloop
  endfacet
  facet normal -0 0 1
    outer loop
      vertex -7.695 8.54617 20
      vertex -3.67366 5.05636 20
      vertex -5.75 9.95929 20
    endloop
  endfacet
  facet normal 0 0 1
    outer loop
      vertex -3.67366 5.05636 20
      vertex -7.695 8.54617 20
      vertex -5.05636 3.67366 20
    endloop
  endfacet
  facet normal -0 0 1
    outer loop
      vertex -9.30369 6.75953 20
      vertex -5.05636 3.67366 20
      vertex -7.695 8.54617 20
    endloop
  endfacet
  facet normal -0 0 1
    outer loop
      vertex -10.5058 4.67747 20
      vertex -5.05636 3.67366 20
      vertex -9.30369 6.75953 20
    endloop
  endfacet
  facet normal 0 0 1
    outer loop
      vertex 10.5058 -4.67747 20
      vertex 5.05636 -3.67366 20
      vertex 9.30369 -6.75953 20
    endloop
  endfacet
  facet normal 0 0 1
    outer loop
      vertex 9.30369 -6.75953 20
      vertex 5.05636 -3.67366 20
      vertex 7.695 -8.54617 20
    endloop
  endfacet
  facet normal -0 0 1
    outer loop
      vertex 3.67366 -5.05636 20
      vertex 7.695 -8.54617 20
      vertex 5.05636 -3.67366 20
    endloop
  endfacet
  facet normal 0 0 1
    outer loop
      vertex 7.695 -8.54617 20
      vertex 3.67366 -5.05636 20
      vertex 5.75 -9.95929 20
    endloop
  endfacet
  facet normal -0 0 1
    outer loop
      vertex 1.93136 -5.9441 20
      vertex 5.75 -9.95929 20
      vertex 3.67366 -5.05636 20
    endloop
  endfacet
  facet normal 0 0 1
    outer loop
      vertex 5.75 -9.95929 20
      vertex 1.93136 -5.9441 20
      vertex 3.55369 -10.9371 20
    endloop
  endfacet
  facet normal 0 0 1
    outer loop
      vertex 1.93136 -5.9441 20
      vertex 1.20208 -11.437 20
      vertex 3.55369 -10.9371 20
    endloop
  endfacet
  facet normal -0 0 1
    outer loop
      vertex 0 -6.25 20
      vertex 1.20208 -11.437 20
      vertex 1.93136 -5.9441 20
    endloop
  endfacet
  facet normal 0 0 1
    outer loop
      vertex 0 -6.25 20
      vertex -1.20208 -11.437 20
      vertex 1.20208 -11.437 20
    endloop
  endfacet
  facet normal 0 0 1
    outer loop
      vertex -1.93136 -5.9441 20
      vertex -1.20208 -11.437 20
      vertex 0 -6.25 20
    endloop
  endfacet
  facet normal 0 0 1
    outer loop
      vertex -1.93136 -5.9441 20
      vertex -3.55369 -10.9371 20
      vertex -1.20208 -11.437 20
    endloop
  endfacet
  facet normal 0 0 1
    outer loop
      vertex -5.75 -9.95929 20
      vertex -1.93136 -5.9441 20
      vertex -3.67366 -5.05636 20
    endloop
  endfacet
  facet normal 0 0 1
    outer loop
      vertex -7.695 -8.54617 20
      vertex -3.67366 -5.05636 20
      vertex -5.05636 -3.67366 20
    endloop
  endfacet
  facet normal 0 0 1
    outer loop
      vertex -1.93136 -5.9441 20
      vertex -5.75 -9.95929 20
      vertex -3.55369 -10.9371 20
    endloop
  endfacet
  facet normal 0 0 1
    outer loop
      vertex -10.5058 -4.67747 20
      vertex -5.05636 -3.67366 20
      vertex -5.9441 -1.93136 20
    endloop
  endfacet
  facet normal 0 0 1
    outer loop
      vertex -11.2487 -2.39098 20
      vertex -5.9441 -1.93136 20
      vertex -6.25 0 20
    endloop
  endfacet
  facet normal 0 0 1
    outer loop
      vertex -5.05636 3.67366 20
      vertex -10.5058 4.67747 20
      vertex -5.9441 1.93136 20
    endloop
  endfacet
  facet normal 0 0 1
    outer loop
      vertex -3.67366 -5.05636 20
      vertex -7.695 -8.54617 20
      vertex -5.75 -9.95929 20
    endloop
  endfacet
  facet normal -0 0 1
    outer loop
      vertex -11.2487 2.39098 20
      vertex -5.9441 1.93136 20
      vertex -10.5058 4.67747 20
    endloop
  endfacet
  facet normal 0 0 1
    outer loop
      vertex -5.05636 -3.67366 20
      vertex -9.30369 -6.75953 20
      vertex -7.695 -8.54617 20
    endloop
  endfacet
  facet normal 0 0 1
    outer loop
      vertex -5.9441 1.93136 20
      vertex -11.2487 2.39098 20
      vertex -6.25 0 20
    endloop
  endfacet
  facet normal 0 0 1
    outer loop
      vertex -5.05636 -3.67366 20
      vertex -10.5058 -4.67747 20
      vertex -9.30369 -6.75953 20
    endloop
  endfacet
  facet normal 0 0 1
    outer loop
      vertex -11.5 0 20
      vertex -6.25 0 20
      vertex -11.2487 2.39098 20
    endloop
  endfacet
  facet normal 0 0 1
    outer loop
      vertex -5.9441 -1.93136 20
      vertex -11.2487 -2.39098 20
      vertex -10.5058 -4.67747 20
    endloop
  endfacet
  facet normal 0 0 1
    outer loop
      vertex -6.25 0 20
      vertex -11.5 0 20
      vertex -11.2487 -2.39098 20
    endloop
  endfacet
  facet normal -0.406737 0.913545 0
    outer loop
      vertex -3.55369 10.9371 -20
      vertex -5.75 9.95929 20
      vertex -3.55369 10.9371 20
    endloop
  endfacet
  facet normal -0.406737 0.913545 0
    outer loop
      vertex -5.75 9.95929 20
      vertex -3.55369 10.9371 -20
      vertex -5.75 9.95929 -20
    endloop
  endfacet
  facet normal 0.994522 -0.104529 0
    outer loop
      vertex 11.2487 -2.39098 20
      vertex 11.5 0 -20
      vertex 11.5 0 20
    endloop
  endfacet
  facet normal 0.994522 -0.104529 0
    outer loop
      vertex 11.5 0 -20
      vertex 11.2487 -2.39098 20
      vertex 11.2487 -2.39098 -20
    endloop
  endfacet
  facet normal 0 0 -1
    outer loop
      vertex 6.25 0 -20
      vertex 11.5 0 -20
      vertex 11.2487 -2.39098 -20
    endloop
  endfacet
  facet normal 0 0 -1
    outer loop
      vertex 5.9441 -1.93136 -20
      vertex 11.2487 -2.39098 -20
      vertex 10.5058 -4.67747 -20
    endloop
  endfacet
  facet normal 0 0 -1
    outer loop
      vertex 11.5 0 -20
      vertex 6.25 0 -20
      vertex 11.2487 2.39098 -20
    endloop
  endfacet
  facet normal 0 0 -1
    outer loop
      vertex 5.05636 -3.67366 -20
      vertex 10.5058 -4.67747 -20
      vertex 9.30369 -6.75953 -20
    endloop
  endfacet
  facet normal 0 0 -1
    outer loop
      vertex 5.9441 1.93136 -20
      vertex 11.2487 2.39098 -20
      vertex 6.25 0 -20
    endloop
  endfacet
  facet normal 0 0 -1
    outer loop
      vertex 5.05636 -3.67366 -20
      vertex 9.30369 -6.75953 -20
      vertex 7.695 -8.54617 -20
    endloop
  endfacet
  facet normal -0 0 -1
    outer loop
      vertex 11.2487 2.39098 -20
      vertex 5.9441 1.93136 -20
      vertex 10.5058 4.67747 -20
    endloop
  endfacet
  facet normal 0 0 -1
    outer loop
      vertex 5.05636 3.67366 -20
      vertex 10.5058 4.67747 -20
      vertex 5.9441 1.93136 -20
    endloop
  endfacet
  facet normal 0 0 -1
    outer loop
      vertex 11.2487 -2.39098 -20
      vertex 5.9441 -1.93136 -20
      vertex 6.25 0 -20
    endloop
  endfacet
  facet normal 0 0 -1
    outer loop
      vertex 3.67366 -5.05636 -20
      vertex 7.695 -8.54617 -20
      vertex 5.75 -9.95929 -20
    endloop
  endfacet
  facet normal 0 0 -1
    outer loop
      vertex 10.5058 -4.67747 -20
      vertex 5.05636 -3.67366 -20
      vertex 5.9441 -1.93136 -20
    endloop
  endfacet
  facet normal 0 0 -1
    outer loop
      vertex 7.695 -8.54617 -20
      vertex 3.67366 -5.05636 -20
      vertex 5.05636 -3.67366 -20
    endloop
  endfacet
  facet normal 0 0 -1
    outer loop
      vertex 1.93136 -5.9441 -20
      vertex 5.75 -9.95929 -20
      vertex 3.55369 -10.9371 -20
    endloop
  endfacet
  facet normal 0 0 -1
    outer loop
      vertex 5.75 -9.95929 -20
      vertex 1.93136 -5.9441 -20
      vertex 3.67366 -5.05636 -20
    endloop
  endfacet
  facet normal 0 0 -1
    outer loop
      vertex 1.20208 -11.437 -20
      vertex 1.93136 -5.9441 -20
      vertex 3.55369 -10.9371 -20
    endloop
  endfacet
  facet normal 0 0 -1
    outer loop
      vertex 1.20208 -11.437 -20
      vertex 0 -6.25 -20
      vertex 1.93136 -5.9441 -20
    endloop
  endfacet
  facet normal 0 0 -1
    outer loop
      vertex -1.20208 -11.437 -20
      vertex 0 -6.25 -20
      vertex 1.20208 -11.437 -20
    endloop
  endfacet
  facet normal 0 0 -1
    outer loop
      vertex -1.20208 -11.437 -20
      vertex -1.93136 -5.9441 -20
      vertex 0 -6.25 -20
    endloop
  endfacet
  facet normal 0 0 -1
    outer loop
      vertex -3.55369 -10.9371 -20
      vertex -1.93136 -5.9441 -20
      vertex -1.20208 -11.437 -20
    endloop
  endfacet
  facet normal 0 0 -1
    outer loop
      vertex -5.75 -9.95929 -20
      vertex -1.93136 -5.9441 -20
      vertex -3.55369 -10.9371 -20
    endloop
  endfacet
  facet normal -0 0 -1
    outer loop
      vertex -1.93136 -5.9441 -20
      vertex -5.75 -9.95929 -20
      vertex -3.67366 -5.05636 -20
    endloop
  endfacet
  facet normal 0 0 -1
    outer loop
      vertex -7.695 -8.54617 -20
      vertex -3.67366 -5.05636 -20
      vertex -5.75 -9.95929 -20
    endloop
  endfacet
  facet normal -0 0 -1
    outer loop
      vertex -3.67366 -5.05636 -20
      vertex -7.695 -8.54617 -20
      vertex -5.05636 -3.67366 -20
    endloop
  endfacet
  facet normal 0 0 -1
    outer loop
      vertex -9.30369 -6.75953 -20
      vertex -5.05636 -3.67366 -20
      vertex -7.695 -8.54617 -20
    endloop
  endfacet
  facet normal 0 0 -1
    outer loop
      vertex -10.5058 -4.67747 -20
      vertex -5.05636 -3.67366 -20
      vertex -9.30369 -6.75953 -20
    endloop
  endfacet
  facet normal -0 0 -1
    outer loop
      vertex 10.5058 4.67747 -20
      vertex 5.05636 3.67366 -20
      vertex 9.30369 6.75953 -20
    endloop
  endfacet
  facet normal -0 0 -1
    outer loop
      vertex 9.30369 6.75953 -20
      vertex 5.05636 3.67366 -20
      vertex 7.695 8.54617 -20
    endloop
  endfacet
  facet normal 0 0 -1
    outer loop
      vertex 3.67366 5.05636 -20
      vertex 7.695 8.54617 -20
      vertex 5.05636 3.67366 -20
    endloop
  endfacet
  facet normal -0 0 -1
    outer loop
      vertex 7.695 8.54617 -20
      vertex 3.67366 5.05636 -20
      vertex 5.75 9.95929 -20
    endloop
  endfacet
  facet normal 0 0 -1
    outer loop
      vertex 1.93136 5.9441 -20
      vertex 5.75 9.95929 -20
      vertex 3.67366 5.05636 -20
    endloop
  endfacet
  facet normal -0 0 -1
    outer loop
      vertex 5.75 9.95929 -20
      vertex 1.93136 5.9441 -20
      vertex 3.55369 10.9371 -20
    endloop
  endfacet
  facet normal 0 0 -1
    outer loop
      vertex 1.93136 5.9441 -20
      vertex 1.20208 11.437 -20
      vertex 3.55369 10.9371 -20
    endloop
  endfacet
  facet normal 0 0 -1
    outer loop
      vertex 0 6.25 -20
      vertex 1.20208 11.437 -20
      vertex 1.93136 5.9441 -20
    endloop
  endfacet
  facet normal 0 0 -1
    outer loop
      vertex 0 6.25 -20
      vertex -1.20208 11.437 -20
      vertex 1.20208 11.437 -20
    endloop
  endfacet
  facet normal 0 0 -1
    outer loop
      vertex -1.93136 5.9441 -20
      vertex -1.20208 11.437 -20
      vertex 0 6.25 -20
    endloop
  endfacet
  facet normal 0 0 -1
    outer loop
      vertex -1.93136 5.9441 -20
      vertex -3.55369 10.9371 -20
      vertex -1.20208 11.437 -20
    endloop
  endfacet
  facet normal 0 0 -1
    outer loop
      vertex -5.75 9.95929 -20
      vertex -1.93136 5.9441 -20
      vertex -3.67366 5.05636 -20
    endloop
  endfacet
  facet normal 0 0 -1
    outer loop
      vertex -7.695 8.54617 -20
      vertex -3.67366 5.05636 -20
      vertex -5.05636 3.67366 -20
    endloop
  endfacet
  facet normal 0 0 -1
    outer loop
      vertex -1.93136 5.9441 -20
      vertex -5.75 9.95929 -20
      vertex -3.55369 10.9371 -20
    endloop
  endfacet
  facet normal 0 0 -1
    outer loop
      vertex -10.5058 4.67747 -20
      vertex -5.05636 3.67366 -20
      vertex -5.9441 1.93136 -20
    endloop
  endfacet
  facet normal 0 0 -1
    outer loop
      vertex -11.2487 2.39098 -20
      vertex -5.9441 1.93136 -20
      vertex -6.25 0 -20
    endloop
  endfacet
  facet normal -0 0 -1
    outer loop
      vertex -5.05636 -3.67366 -20
      vertex -10.5058 -4.67747 -20
      vertex -5.9441 -1.93136 -20
    endloop
  endfacet
  facet normal 0 0 -1
    outer loop
      vertex -3.67366 5.05636 -20
      vertex -7.695 8.54617 -20
      vertex -5.75 9.95929 -20
    endloop
  endfacet
  facet normal 0 0 -1
    outer loop
      vertex -11.2487 -2.39098 -20
      vertex -5.9441 -1.93136 -20
      vertex -10.5058 -4.67747 -20
    endloop
  endfacet
  facet normal 0 0 -1
    outer loop
      vertex -5.05636 3.67366 -20
      vertex -9.30369 6.75953 -20
      vertex -7.695 8.54617 -20
    endloop
  endfacet
  facet normal -0 0 -1
    outer loop
      vertex -5.9441 -1.93136 -20
      vertex -11.2487 -2.39098 -20
      vertex -6.25 0 -20
    endloop
  endfacet
  facet normal 0 0 -1
    outer loop
      vertex -5.05636 3.67366 -20
      vertex -10.5058 4.67747 -20
      vertex -9.30369 6.75953 -20
    endloop
  endfacet
  facet normal 0 0 -1
    outer loop
      vertex -11.5 0 -20
      vertex -6.25 0 -20
      vertex -11.2487 -2.39098 -20
    endloop
  endfacet
  facet normal 0 0 -1
    outer loop
      vertex -5.9441 1.93136 -20
      vertex -11.2487 2.39098 -20
      vertex -10.5058 4.67747 -20
    endloop
  endfacet
  facet normal 0 0 -1
    outer loop
      vertex -6.25 0 -20
      vertex -11.5 0 -20
      vertex -11.2487 2.39098 -20
    endloop
  endfacet
  facet normal 0.587785 -0.809017 0
    outer loop
      vertex 5.75 -9.95929 -20
      vertex 7.695 -8.54617 20
      vertex 5.75 -9.95929 20
    endloop
  endfacet
  facet normal 0.587785 -0.809017 0
    outer loop
      vertex 7.695 -8.54617 20
      vertex 5.75 -9.95929 -20
      vertex 7.695 -8.54617 -20
    endloop
  endfacet
  facet normal 0.743145 -0.66913 0
    outer loop
      vertex 7.695 -8.54617 20
      vertex 9.30369 -6.75953 -20
      vertex 9.30369 -6.75953 20
    endloop
  endfacet
  facet normal 0.743145 -0.66913 0
    outer loop
      vertex 9.30369 -6.75953 -20
      vertex 7.695 -8.54617 20
      vertex 7.695 -8.54617 -20
    endloop
  endfacet
  facet normal 0.951057 -0.309017 0
    outer loop
      vertex 10.5058 -4.67747 20
      vertex 11.2487 -2.39098 -20
      vertex 11.2487 -2.39098 20
    endloop
  endfacet
  facet normal 0.951057 -0.309017 0
    outer loop
      vertex 11.2487 -2.39098 -20
      vertex 10.5058 -4.67747 20
      vertex 10.5058 -4.67747 -20
    endloop
  endfacet
  facet normal -0.587785 -0.809017 0
    outer loop
      vertex -7.695 -8.54617 -20
      vertex -5.75 -9.95929 20
      vertex -7.695 -8.54617 20
    endloop
  endfacet
  facet normal -0.587785 -0.809017 -0
    outer loop
      vertex -5.75 -9.95929 20
      vertex -7.695 -8.54617 -20
      vertex -5.75 -9.95929 -20
    endloop
  endfacet
  facet normal -0.866025 -0.5 0
    outer loop
      vertex -9.30369 -6.75953 -20
      vertex -10.5058 -4.67747 20
      vertex -10.5058 -4.67747 -20
    endloop
  endfacet
  facet normal -0.866025 -0.5 0
    outer loop
      vertex -10.5058 -4.67747 20
      vertex -9.30369 -6.75953 -20
      vertex -9.30369 -6.75953 20
    endloop
  endfacet
  facet normal -0.207912 -0.978148 0
    outer loop
      vertex -3.55369 -10.9371 -20
      vertex -1.20208 -11.437 20
      vertex -3.55369 -10.9371 20
    endloop
  endfacet
  facet normal -0.207912 -0.978148 -0
    outer loop
      vertex -1.20208 -11.437 20
      vertex -3.55369 -10.9371 -20
      vertex -1.20208 -11.437 -20
    endloop
  endfacet
  facet normal -0.406736 -0.913546 0
    outer loop
      vertex -5.75 -9.95929 -20
      vertex -3.55369 -10.9371 20
      vertex -5.75 -9.95929 20
    endloop
  endfacet
  facet normal -0.406736 -0.913546 -0
    outer loop
      vertex -3.55369 -10.9371 20
      vertex -5.75 -9.95929 -20
      vertex -3.55369 -10.9371 -20
    endloop
  endfacet
  facet normal -0.743145 -0.66913 0
    outer loop
      vertex -7.695 -8.54617 -20
      vertex -9.30369 -6.75953 20
      vertex -9.30369 -6.75953 -20
    endloop
  endfacet
  facet normal -0.743145 -0.66913 0
    outer loop
      vertex -9.30369 -6.75953 20
      vertex -7.695 -8.54617 -20
      vertex -7.695 -8.54617 20
    endloop
  endfacet
  facet normal -0.951057 -0.309017 0
    outer loop
      vertex -10.5058 -4.67747 -20
      vertex -11.2487 -2.39098 20
      vertex -11.2487 -2.39098 -20
    endloop
  endfacet
  facet normal -0.951057 -0.309017 0
    outer loop
      vertex -11.2487 -2.39098 20
      vertex -10.5058 -4.67747 -20
      vertex -10.5058 -4.67747 20
    endloop
  endfacet
  facet normal -0.994522 -0.104529 0
    outer loop
      vertex -11.2487 -2.39098 -20
      vertex -11.5 0 20
      vertex -11.5 0 -20
    endloop
  endfacet
  facet normal -0.994522 -0.104529 0
    outer loop
      vertex -11.5 0 20
      vertex -11.2487 -2.39098 -20
      vertex -11.2487 -2.39098 20
    endloop
  endfacet
  facet normal 0.406736 -0.913546 0
    outer loop
      vertex 3.55369 -10.9371 -20
      vertex 5.75 -9.95929 20
      vertex 3.55369 -10.9371 20
    endloop
  endfacet
  facet normal 0.406736 -0.913546 0
    outer loop
      vertex 5.75 -9.95929 20
      vertex 3.55369 -10.9371 -20
      vertex 5.75 -9.95929 -20
    endloop
  endfacet
  facet normal 0.207912 -0.978148 0
    outer loop
      vertex 1.20208 -11.437 -20
      vertex 3.55369 -10.9371 20
      vertex 1.20208 -11.437 20
    endloop
  endfacet
  facet normal 0.207912 -0.978148 0
    outer loop
      vertex 3.55369 -10.9371 20
      vertex 1.20208 -11.437 -20
      vertex 3.55369 -10.9371 -20
    endloop
  endfacet
  facet normal -0.987688 -0.156435 0
    outer loop
      vertex 6.25 0 -20
      vertex 5.9441 1.93136 20
      vertex 5.9441 1.93136 -20
    endloop
  endfacet
  facet normal -0.987688 -0.156435 0
    outer loop
      vertex 5.9441 1.93136 20
      vertex 6.25 0 -20
      vertex 6.25 0 20
    endloop
  endfacet
  facet normal -0.45399 -0.891007 0
    outer loop
      vertex 1.93136 5.9441 -20
      vertex 3.67366 5.05636 20
      vertex 1.93136 5.9441 20
    endloop
  endfacet
  facet normal -0.45399 -0.891007 -0
    outer loop
      vertex 3.67366 5.05636 20
      vertex 1.93136 5.9441 -20
      vertex 3.67366 5.05636 -20
    endloop
  endfacet
  facet normal 0.891007 -0.45399 0
    outer loop
      vertex -5.9441 1.93136 20
      vertex -5.05636 3.67366 -20
      vertex -5.05636 3.67366 20
    endloop
  endfacet
  facet normal 0.891007 -0.45399 0
    outer loop
      vertex -5.05636 3.67366 -20
      vertex -5.9441 1.93136 20
      vertex -5.9441 1.93136 -20
    endloop
  endfacet
  facet normal 0.45399 0.891007 -0
    outer loop
      vertex -1.93136 -5.9441 -20
      vertex -3.67366 -5.05636 20
      vertex -1.93136 -5.9441 20
    endloop
  endfacet
  facet normal 0.45399 0.891007 0
    outer loop
      vertex -3.67366 -5.05636 20
      vertex -1.93136 -5.9441 -20
      vertex -3.67366 -5.05636 -20
    endloop
  endfacet
  facet normal -0.707107 -0.707107 0
    outer loop
      vertex 5.05636 3.67366 -20
      vertex 3.67366 5.05636 20
      vertex 3.67366 5.05636 -20
    endloop
  endfacet
  facet normal -0.707107 -0.707107 0
    outer loop
      vertex 3.67366 5.05636 20
      vertex 5.05636 3.67366 -20
      vertex 5.05636 3.67366 20
    endloop
  endfacet
  facet normal -0.891007 -0.45399 0
    outer loop
      vertex 5.9441 1.93136 -20
      vertex 5.05636 3.67366 20
      vertex 5.05636 3.67366 -20
    endloop
  endfacet
  facet normal -0.891007 -0.45399 0
    outer loop
      vertex 5.05636 3.67366 20
      vertex 5.9441 1.93136 -20
      vertex 5.9441 1.93136 20
    endloop
  endfacet
  facet normal -0.156435 -0.987688 0
    outer loop
      vertex 0 6.25 -20
      vertex 1.93136 5.9441 20
      vertex 0 6.25 20
    endloop
  endfacet
  facet normal -0.156435 -0.987688 -0
    outer loop
      vertex 1.93136 5.9441 20
      vertex 0 6.25 -20
      vertex 1.93136 5.9441 -20
    endloop
  endfacet
  facet normal 0.156435 -0.987688 0
    outer loop
      vertex -1.93136 5.9441 -20
      vertex 0 6.25 20
      vertex -1.93136 5.9441 20
    endloop
  endfacet
  facet normal 0.156435 -0.987688 0
    outer loop
      vertex 0 6.25 20
      vertex -1.93136 5.9441 -20
      vertex 0 6.25 -20
    endloop
  endfacet
  facet normal 0.707107 -0.707107 0
    outer loop
      vertex -5.05636 3.67366 20
      vertex -3.67366 5.05636 -20
      vertex -3.67366 5.05636 20
    endloop
  endfacet
  facet normal 0.707107 -0.707107 0
    outer loop
      vertex -3.67366 5.05636 -20
      vertex -5.05636 3.67366 20
      vertex -5.05636 3.67366 -20
    endloop
  endfacet
  facet normal 0.45399 -0.891007 0
    outer loop
      vertex -3.67366 5.05636 -20
      vertex -1.93136 5.9441 20
      vertex -3.67366 5.05636 20
    endloop
  endfacet
  facet normal 0.45399 -0.891007 0
    outer loop
      vertex -1.93136 5.9441 20
      vertex -3.67366 5.05636 -20
      vertex -1.93136 5.9441 -20
    endloop
  endfacet
  facet normal -0.707107 0.707107 0
    outer loop
      vertex 3.67366 -5.05636 -20
      vertex 5.05636 -3.67366 20
      vertex 5.05636 -3.67366 -20
    endloop
  endfacet
  facet normal -0.707107 0.707107 0
    outer loop
      vertex 5.05636 -3.67366 20
      vertex 3.67366 -5.05636 -20
      vertex 3.67366 -5.05636 20
    endloop
  endfacet
  facet normal 0.987688 0.156435 0
    outer loop
      vertex -5.9441 -1.93136 20
      vertex -6.25 0 -20
      vertex -6.25 0 20
    endloop
  endfacet
  facet normal 0.987688 0.156435 0
    outer loop
      vertex -6.25 0 -20
      vertex -5.9441 -1.93136 20
      vertex -5.9441 -1.93136 -20
    endloop
  endfacet
  facet normal 0.707107 0.707107 0
    outer loop
      vertex -3.67366 -5.05636 20
      vertex -5.05636 -3.67366 -20
      vertex -5.05636 -3.67366 20
    endloop
  endfacet
  facet normal 0.707107 0.707107 0
    outer loop
      vertex -5.05636 -3.67366 -20
      vertex -3.67366 -5.05636 20
      vertex -3.67366 -5.05636 -20
    endloop
  endfacet
  facet normal 0.891007 0.45399 0
    outer loop
      vertex -5.05636 -3.67366 20
      vertex -5.9441 -1.93136 -20
      vertex -5.9441 -1.93136 20
    endloop
  endfacet
  facet normal 0.891007 0.45399 0
    outer loop
      vertex -5.9441 -1.93136 -20
      vertex -5.05636 -3.67366 20
      vertex -5.05636 -3.67366 -20
    endloop
  endfacet
  facet normal 0.987688 -0.156435 0
    outer loop
      vertex -6.25 0 20
      vertex -5.9441 1.93136 -20
      vertex -5.9441 1.93136 20
    endloop
  endfacet
  facet normal 0.987688 -0.156435 0
    outer loop
      vertex -5.9441 1.93136 -20
      vertex -6.25 0 20
      vertex -6.25 0 -20
    endloop
  endfacet
  facet normal -0.891007 0.45399 0
    outer loop
      vertex 5.05636 -3.67366 -20
      vertex 5.9441 -1.93136 20
      vertex 5.9441 -1.93136 -20
    endloop
  endfacet
  facet normal -0.891007 0.45399 0
    outer loop
      vertex 5.9441 -1.93136 20
      vertex 5.05636 -3.67366 -20
      vertex 5.05636 -3.67366 20
    endloop
  endfacet
  facet normal -0.156435 0.987688 0
    outer loop
      vertex 1.93136 -5.9441 -20
      vertex 0 -6.25 20
      vertex 1.93136 -5.9441 20
    endloop
  endfacet
  facet normal -0.156435 0.987688 0
    outer loop
      vertex 0 -6.25 20
      vertex 1.93136 -5.9441 -20
      vertex 0 -6.25 -20
    endloop
  endfacet
  facet normal -0.45399 0.891007 0
    outer loop
      vertex 3.67366 -5.05636 -20
      vertex 1.93136 -5.9441 20
      vertex 3.67366 -5.05636 20
    endloop
  endfacet
  facet normal -0.45399 0.891007 0
    outer loop
      vertex 1.93136 -5.9441 20
      vertex 3.67366 -5.05636 -20
      vertex 1.93136 -5.9441 -20
    endloop
  endfacet
  facet normal 0.156435 0.987688 -0
    outer loop
      vertex 0 -6.25 -20
      vertex -1.93136 -5.9441 20
      vertex 0 -6.25 20
    endloop
  endfacet
  facet normal 0.156435 0.987688 0
    outer loop
      vertex -1.93136 -5.9441 20
      vertex 0 -6.25 -20
      vertex -1.93136 -5.9441 -20
    endloop
  endfacet
  facet normal -0.987688 0.156435 0
    outer loop
      vertex 5.9441 -1.93136 -20
      vertex 6.25 0 20
      vertex 6.25 0 -20
    endloop
  endfacet
  facet normal -0.987688 0.156435 0
    outer loop
      vertex 6.25 0 20
      vertex 5.9441 -1.93136 -20
      vertex 5.9441 -1.93136 20
    endloop
  endfacet
endsolid OpenSCAD_Model
