solid OpenSCAD_Model
  facet normal -1 0 0
    outer loop
      vertex -6 6 11
      vertex -6 3 33.4
      vertex -6 6 67.4
    endloop
  endfacet
  facet normal -1 0 0
    outer loop
      vertex -6 -6 11
      vertex -6 3 33.4
      vertex -6 6 11
    endloop
  endfacet
  facet normal -1 -0 0
    outer loop
      vertex -6 3 33.4
      vertex -6 -6 11
      vertex -6 -6 33.4
    endloop
  endfacet
  facet normal -1 -0 0
    outer loop
      vertex -6 6 67.4
      vertex -6 3 33.4
      vertex -6 3 67.4
    endloop
  endfacet
  facet normal 0 0 1
    outer loop
      vertex 6 6 67.4
      vertex 2.84489 3 67.4
      vertex 6 3 67.4
    endloop
  endfacet
  facet normal 0 0 1
    outer loop
      vertex 6 6 67.4
      vertex 2.61866 3.28369 67.4
      vertex 2.84489 3 67.4
    endloop
  endfacet
  facet normal 0 0 1
    outer loop
      vertex 6 6 67.4
      vertex 0.934587 4.0947 67.4
      vertex 2.61866 3.28369 67.4
    endloop
  endfacet
  facet normal 0 0 1
    outer loop
      vertex 6 6 67.4
      vertex -0.934587 4.0947 67.4
      vertex 0.934587 4.0947 67.4
    endloop
  endfacet
  facet normal -0 0 1
    outer loop
      vertex -6 6 67.4
      vertex -0.934587 4.0947 67.4
      vertex 6 6 67.4
    endloop
  endfacet
  facet normal 0 0 1
    outer loop
      vertex -6 6 67.4
      vertex -2.61866 3.28369 67.4
      vertex -0.934587 4.0947 67.4
    endloop
  endfacet
  facet normal 0 0 1
    outer loop
      vertex -6 6 67.4
      vertex -2.84489 3 67.4
      vertex -2.61866 3.28369 67.4
    endloop
  endfacet
  facet normal 0 0 1
    outer loop
      vertex -2.84489 3 67.4
      vertex -6 6 67.4
      vertex -6 3 67.4
    endloop
  endfacet
  facet normal 1 -0 0
    outer loop
      vertex 6 3 67.4
      vertex 6 6 33.4
      vertex 6 6 67.4
    endloop
  endfacet
  facet normal 1 0 0
    outer loop
      vertex 6 6 33.4
      vertex 6 3 67.4
      vertex 6 3 33.4
    endloop
  endfacet
  facet normal 0 1 0
    outer loop
      vertex 44.4 6 33.4
      vertex 42.4 6 2
      vertex 42.4 6 33.4
    endloop
  endfacet
  facet normal 0 1 0
    outer loop
      vertex 42.4 6 2
      vertex 44.4 6 0
      vertex 12 6 2
    endloop
  endfacet
  facet normal 0 1 -0
    outer loop
      vertex 44.4 6 0
      vertex 42.4 6 2
      vertex 44.4 6 33.4
    endloop
  endfacet
  facet normal 0 1 0
    outer loop
      vertex 12 6 33.4
      vertex 9.16802 6 11
      vertex 6 6 33.4
    endloop
  endfacet
  facet normal 0 1 -0
    outer loop
      vertex 12 6 2
      vertex 9.16802 6 11
      vertex 12 6 33.4
    endloop
  endfacet
  facet normal 0 1 0
    outer loop
      vertex 12 6 2
      vertex 9.16802 6 0
      vertex 9.16802 6 11
    endloop
  endfacet
  facet normal 0 1 0
    outer loop
      vertex 9.16802 6 0
      vertex 12 6 2
      vertex 44.4 6 0
    endloop
  endfacet
  facet normal 0 1 -0
    outer loop
      vertex 6 6 33.4
      vertex -6 6 67.4
      vertex 6 6 67.4
    endloop
  endfacet
  facet normal 0 1 0
    outer loop
      vertex -6 6 11
      vertex 6 6 33.4
      vertex 9.16802 6 11
    endloop
  endfacet
  facet normal 0 1 0
    outer loop
      vertex 6 6 33.4
      vertex -6 6 11
      vertex -6 6 67.4
    endloop
  endfacet
  facet normal 0 0 -1
    outer loop
      vertex 44.4 -6 0
      vertex 11 0 0
      vertex 44.4 6 0
    endloop
  endfacet
  facet normal 0 0 -1
    outer loop
      vertex 44.4 -6 0
      vertex 10.7596 -2.28703 0
      vertex 11 0 0
    endloop
  endfacet
  facet normal 0 0 -1
    outer loop
      vertex 44.4 -6 0
      vertex 10.049 -4.4741 0
      vertex 10.7596 -2.28703 0
    endloop
  endfacet
  facet normal 0 -0 -1
    outer loop
      vertex 10.049 -4.4741 0
      vertex 44.4 -6 0
      vertex 9.16802 -6 0
    endloop
  endfacet
  facet normal 0 0 -1
    outer loop
      vertex 10.7596 2.28703 0
      vertex 44.4 6 0
      vertex 11 0 0
    endloop
  endfacet
  facet normal 0 0 -1
    outer loop
      vertex 10.049 4.4741 0
      vertex 44.4 6 0
      vertex 10.7596 2.28703 0
    endloop
  endfacet
  facet normal -0 0 -1
    outer loop
      vertex 44.4 6 0
      vertex 10.049 4.4741 0
      vertex 9.16802 6 0
    endloop
  endfacet
  facet normal 0 -1 0
    outer loop
      vertex -6 -6 11
      vertex 7 -6 33.4
      vertex -6 -6 33.4
    endloop
  endfacet
  facet normal 0 -1 0
    outer loop
      vertex 7 -6 33.4
      vertex 12 -6 31.4
      vertex 44.4 -6 33.4
    endloop
  endfacet
  facet normal 0 -1 -0
    outer loop
      vertex 7 -6 33.4
      vertex -6 -6 11
      vertex 9.16802 -6 11
    endloop
  endfacet
  facet normal 0 -1 0
    outer loop
      vertex 7 -6 33.4
      vertex 9.16802 -6 11
      vertex 12 -6 31.4
    endloop
  endfacet
  facet normal 0 -1 0
    outer loop
      vertex 9.16802 -6 11
      vertex 12 -6 2
      vertex 12 -6 31.4
    endloop
  endfacet
  facet normal 0 -1 0
    outer loop
      vertex 44.4 -6 0
      vertex 12 -6 2
      vertex 9.16802 -6 0
    endloop
  endfacet
  facet normal 0 -1 0
    outer loop
      vertex 9.16802 -6 0
      vertex 12 -6 2
      vertex 9.16802 -6 11
    endloop
  endfacet
  facet normal 0 -1 0
    outer loop
      vertex 42.4 -6 31.4
      vertex 44.4 -6 33.4
      vertex 12 -6 31.4
    endloop
  endfacet
  facet normal 0 -1 0
    outer loop
      vertex 42.4 -6 2
      vertex 44.4 -6 33.4
      vertex 42.4 -6 31.4
    endloop
  endfacet
  facet normal 0 -1 0
    outer loop
      vertex 42.4 -6 2
      vertex 44.4 -6 0
      vertex 44.4 -6 33.4
    endloop
  endfacet
  facet normal 0 -1 0
    outer loop
      vertex 12 -6 2
      vertex 44.4 -6 0
      vertex 42.4 -6 2
    endloop
  endfacet
  facet normal 0 0 1
    outer loop
      vertex 12 6 33.4
      vertex 7 3 33.4
      vertex 12 2 33.4
    endloop
  endfacet
  facet normal -0 0 1
    outer loop
      vertex 6 6 33.4
      vertex 7 3 33.4
      vertex 12 6 33.4
    endloop
  endfacet
  facet normal 0 0 1
    outer loop
      vertex 7 3 33.4
      vertex 6 6 33.4
      vertex 6 3 33.4
    endloop
  endfacet
  facet normal 0 0 1
    outer loop
      vertex 42.4 2 33.4
      vertex 44.4 6 33.4
      vertex 42.4 6 33.4
    endloop
  endfacet
  facet normal 0 0 1
    outer loop
      vertex 44.4 6 33.4
      vertex 42.4 2 33.4
      vertex 44.4 -6 33.4
    endloop
  endfacet
  facet normal -0 0 1
    outer loop
      vertex 12 2 33.4
      vertex 44.4 -6 33.4
      vertex 42.4 2 33.4
    endloop
  endfacet
  facet normal 0 0 1
    outer loop
      vertex 7 -6 33.4
      vertex 12 2 33.4
      vertex 7 3 33.4
    endloop
  endfacet
  facet normal 0 0 1
    outer loop
      vertex 12 2 33.4
      vertex 7 -6 33.4
      vertex 44.4 -6 33.4
    endloop
  endfacet
  facet normal 0 0 1
    outer loop
      vertex -3.78407 1.82231 33.4
      vertex -6 3 33.4
      vertex -4.2 0 33.4
    endloop
  endfacet
  facet normal -0 0 1
    outer loop
      vertex -6 3 33.4
      vertex -3.78407 1.82231 33.4
      vertex -2.84489 3 33.4
    endloop
  endfacet
  facet normal 0 0 1
    outer loop
      vertex 6 3 33.4
      vertex 3.78407 1.82231 33.4
      vertex 4.2 0 33.4
    endloop
  endfacet
  facet normal 0 -0 1
    outer loop
      vertex 3.78407 1.82231 33.4
      vertex 6 3 33.4
      vertex 2.84489 3 33.4
    endloop
  endfacet
  facet normal 0 0 1
    outer loop
      vertex 4.2 0 33.4
      vertex 7 3 33.4
      vertex 6 3 33.4
    endloop
  endfacet
  facet normal 0 0 1
    outer loop
      vertex 7 3 33.4
      vertex 4.2 0 33.4
      vertex 7 -6 33.4
    endloop
  endfacet
  facet normal -0 0 1
    outer loop
      vertex 3.78407 -1.82231 33.4
      vertex 7 -6 33.4
      vertex 4.2 0 33.4
    endloop
  endfacet
  facet normal -0 0 1
    outer loop
      vertex 2.61866 -3.28369 33.4
      vertex 7 -6 33.4
      vertex 3.78407 -1.82231 33.4
    endloop
  endfacet
  facet normal -0 0 1
    outer loop
      vertex 0.934587 -4.0947 33.4
      vertex 7 -6 33.4
      vertex 2.61866 -3.28369 33.4
    endloop
  endfacet
  facet normal 0 0 1
    outer loop
      vertex -6 -6 33.4
      vertex 0.934587 -4.0947 33.4
      vertex -0.934587 -4.0947 33.4
    endloop
  endfacet
  facet normal 0 0 1
    outer loop
      vertex -6 -6 33.4
      vertex -4.2 0 33.4
      vertex -6 3 33.4
    endloop
  endfacet
  facet normal 0 0 1
    outer loop
      vertex 0.934587 -4.0947 33.4
      vertex -6 -6 33.4
      vertex 7 -6 33.4
    endloop
  endfacet
  facet normal 0 0 1
    outer loop
      vertex -2.61866 -3.28369 33.4
      vertex -6 -6 33.4
      vertex -0.934587 -4.0947 33.4
    endloop
  endfacet
  facet normal 0 0 1
    outer loop
      vertex -3.78407 -1.82231 33.4
      vertex -6 -6 33.4
      vertex -2.61866 -3.28369 33.4
    endloop
  endfacet
  facet normal 0 0 1
    outer loop
      vertex -4.2 0 33.4
      vertex -6 -6 33.4
      vertex -3.78407 -1.82231 33.4
    endloop
  endfacet
  facet normal 1 -0 0
    outer loop
      vertex 44.4 -6 33.4
      vertex 44.4 6 0
      vertex 44.4 6 33.4
    endloop
  endfacet
  facet normal 1 0 0
    outer loop
      vertex 44.4 6 0
      vertex 44.4 -6 33.4
      vertex 44.4 -6 0
    endloop
  endfacet
  facet normal -0.994522 -0.104529 0
    outer loop
      vertex 11 0 0
      vertex 10.7596 2.28703 11
      vertex 10.7596 2.28703 0
    endloop
  endfacet
  facet normal -0.994522 -0.104529 0
    outer loop
      vertex 10.7596 2.28703 11
      vertex 11 0 0
      vertex 11 0 11
    endloop
  endfacet
  facet normal -0.951057 -0.309017 0
    outer loop
      vertex 10.7596 2.28703 0
      vertex 10.049 4.4741 11
      vertex 10.049 4.4741 0
    endloop
  endfacet
  facet normal -0.951057 -0.309017 0
    outer loop
      vertex 10.049 4.4741 11
      vertex 10.7596 2.28703 0
      vertex 10.7596 2.28703 11
    endloop
  endfacet
  facet normal -0.866025 0.5 0
    outer loop
      vertex 9.16802 -6 0
      vertex 10.049 -4.4741 11
      vertex 10.049 -4.4741 0
    endloop
  endfacet
  facet normal -0.866025 0.5 0
    outer loop
      vertex 10.049 -4.4741 11
      vertex 9.16802 -6 0
      vertex 9.16802 -6 11
    endloop
  endfacet
  facet normal -0.866025 -0.5 0
    outer loop
      vertex 10.049 4.4741 0
      vertex 9.16802 6 11
      vertex 9.16802 6 0
    endloop
  endfacet
  facet normal -0.866025 -0.5 0
    outer loop
      vertex 9.16802 6 11
      vertex 10.049 4.4741 0
      vertex 10.049 4.4741 11
    endloop
  endfacet
  facet normal 0 0 -1
    outer loop
      vertex 4.2 0 11
      vertex 11 0 11
      vertex 10.7596 -2.28703 11
    endloop
  endfacet
  facet normal 0 0 -1
    outer loop
      vertex 3.78407 -1.82231 11
      vertex 10.7596 -2.28703 11
      vertex 10.049 -4.4741 11
    endloop
  endfacet
  facet normal 0 0 -1
    outer loop
      vertex 11 0 11
      vertex 4.2 0 11
      vertex 10.7596 2.28703 11
    endloop
  endfacet
  facet normal 0 0 -1
    outer loop
      vertex 3.78407 -1.82231 11
      vertex 10.049 -4.4741 11
      vertex 9.16802 -6 11
    endloop
  endfacet
  facet normal 0 0 -1
    outer loop
      vertex 3.78407 1.82231 11
      vertex 10.7596 2.28703 11
      vertex 4.2 0 11
    endloop
  endfacet
  facet normal -0 0 -1
    outer loop
      vertex 10.7596 2.28703 11
      vertex 3.78407 1.82231 11
      vertex 10.049 4.4741 11
    endloop
  endfacet
  facet normal 0 0 -1
    outer loop
      vertex 10.7596 -2.28703 11
      vertex 3.78407 -1.82231 11
      vertex 4.2 0 11
    endloop
  endfacet
  facet normal 0 0 -1
    outer loop
      vertex 9.16802 -6 11
      vertex 2.61866 -3.28369 11
      vertex 3.78407 -1.82231 11
    endloop
  endfacet
  facet normal 0 0 -1
    outer loop
      vertex 9.16802 -6 11
      vertex 0.934587 -4.0947 11
      vertex 2.61866 -3.28369 11
    endloop
  endfacet
  facet normal 0 0 -1
    outer loop
      vertex -6 -6 11
      vertex 0.934587 -4.0947 11
      vertex 9.16802 -6 11
    endloop
  endfacet
  facet normal -0 0 -1
    outer loop
      vertex -3.78407 -1.82231 11
      vertex -6 -6 11
      vertex -4.2 0 11
    endloop
  endfacet
  facet normal -0 0 -1
    outer loop
      vertex -2.61866 -3.28369 11
      vertex -6 -6 11
      vertex -3.78407 -1.82231 11
    endloop
  endfacet
  facet normal -0 0 -1
    outer loop
      vertex -0.934587 -4.0947 11
      vertex -6 -6 11
      vertex -2.61866 -3.28369 11
    endloop
  endfacet
  facet normal -0 0 -1
    outer loop
      vertex 0.934587 -4.0947 11
      vertex -6 -6 11
      vertex -0.934587 -4.0947 11
    endloop
  endfacet
  facet normal -0 0 -1
    outer loop
      vertex 10.049 4.4741 11
      vertex 3.78407 1.82231 11
      vertex 9.16802 6 11
    endloop
  endfacet
  facet normal 0 0 -1
    outer loop
      vertex 2.61866 3.28369 11
      vertex 9.16802 6 11
      vertex 3.78407 1.82231 11
    endloop
  endfacet
  facet normal 0 0 -1
    outer loop
      vertex 0.934587 4.0947 11
      vertex 9.16802 6 11
      vertex 2.61866 3.28369 11
    endloop
  endfacet
  facet normal 0 0 -1
    outer loop
      vertex -6 6 11
      vertex 0.934587 4.0947 11
      vertex -0.934587 4.0947 11
    endloop
  endfacet
  facet normal 0 0 -1
    outer loop
      vertex -6 6 11
      vertex -4.2 0 11
      vertex -6 -6 11
    endloop
  endfacet
  facet normal 0 0 -1
    outer loop
      vertex 0.934587 4.0947 11
      vertex -6 6 11
      vertex 9.16802 6 11
    endloop
  endfacet
  facet normal 0 0 -1
    outer loop
      vertex -2.61866 3.28369 11
      vertex -6 6 11
      vertex -0.934587 4.0947 11
    endloop
  endfacet
  facet normal 0 0 -1
    outer loop
      vertex -3.78407 1.82231 11
      vertex -6 6 11
      vertex -2.61866 3.28369 11
    endloop
  endfacet
  facet normal 0 0 -1
    outer loop
      vertex -4.2 0 11
      vertex -6 6 11
      vertex -3.78407 1.82231 11
    endloop
  endfacet
  facet normal -0.994522 0.104529 0
    outer loop
      vertex 10.7596 -2.28703 0
      vertex 11 0 11
      vertex 11 0 0
    endloop
  endfacet
  facet normal -0.994522 0.104529 0
    outer loop
      vertex 11 0 11
      vertex 10.7596 -2.28703 0
      vertex 10.7596 -2.28703 11
    endloop
  endfacet
  facet normal -0.951057 0.309017 0
    outer loop
      vertex 10.049 -4.4741 0
      vertex 10.7596 -2.28703 11
      vertex 10.7596 -2.28703 0
    endloop
  endfacet
  facet normal -0.951057 0.309017 0
    outer loop
      vertex 10.7596 -2.28703 11
      vertex 10.049 -4.4741 0
      vertex 10.049 -4.4741 11
    endloop
  endfacet
  facet normal -0.974928 -0.222521 0
    outer loop
      vertex 4.2 0 11
      vertex 3.78407 1.82231 33.4
      vertex 3.78407 1.82231 11
    endloop
  endfacet
  facet normal -0.974928 -0.222521 0
    outer loop
      vertex 3.78407 1.82231 33.4
      vertex 4.2 0 11
      vertex 4.2 0 33.4
    endloop
  endfacet
  facet normal 0.974928 -0.222521 0
    outer loop
      vertex -4.2 0 33.4
      vertex -3.78407 1.82231 11
      vertex -3.78407 1.82231 33.4
    endloop
  endfacet
  facet normal 0.974928 -0.222521 0
    outer loop
      vertex -3.78407 1.82231 11
      vertex -4.2 0 33.4
      vertex -4.2 0 11
    endloop
  endfacet
  facet normal 0 -1 0
    outer loop
      vertex -0.934587 4.0947 11
      vertex 0.934587 4.0947 67.4
      vertex -0.934587 4.0947 67.4
    endloop
  endfacet
  facet normal 0 -1 -0
    outer loop
      vertex 0.934587 4.0947 67.4
      vertex -0.934587 4.0947 11
      vertex 0.934587 4.0947 11
    endloop
  endfacet
  facet normal 0 1 -0
    outer loop
      vertex 0.934587 -4.0947 11
      vertex -0.934587 -4.0947 33.4
      vertex 0.934587 -4.0947 33.4
    endloop
  endfacet
  facet normal 0 1 0
    outer loop
      vertex -0.934587 -4.0947 33.4
      vertex 0.934587 -4.0947 11
      vertex -0.934587 -4.0947 11
    endloop
  endfacet
  facet normal -0.433884 0.900969 0
    outer loop
      vertex 2.61866 -3.28369 11
      vertex 0.934587 -4.0947 33.4
      vertex 2.61866 -3.28369 33.4
    endloop
  endfacet
  facet normal -0.433884 0.900969 0
    outer loop
      vertex 0.934587 -4.0947 33.4
      vertex 2.61866 -3.28369 11
      vertex 0.934587 -4.0947 11
    endloop
  endfacet
  facet normal -0.433884 -0.900969 0
    outer loop
      vertex 0.934587 4.0947 11
      vertex 2.61866 3.28369 67.4
      vertex 0.934587 4.0947 67.4
    endloop
  endfacet
  facet normal -0.433884 -0.900969 -0
    outer loop
      vertex 2.61866 3.28369 67.4
      vertex 0.934587 4.0947 11
      vertex 2.61866 3.28369 11
    endloop
  endfacet
  facet normal -0.781831 -0.62349 0
    outer loop
      vertex 2.61866 3.28369 11
      vertex 2.84489 3 33.4
      vertex 2.61866 3.28369 67.4
    endloop
  endfacet
  facet normal -0.781831 -0.62349 -2.05682e-09
    outer loop
      vertex 3.78407 1.82231 11
      vertex 2.84489 3 33.4
      vertex 2.61866 3.28369 11
    endloop
  endfacet
  facet normal -0.781831 -0.62349 0
    outer loop
      vertex 2.84489 3 33.4
      vertex 3.78407 1.82231 11
      vertex 3.78407 1.82231 33.4
    endloop
  endfacet
  facet normal -0.781831 -0.62349 0
    outer loop
      vertex 2.61866 3.28369 67.4
      vertex 2.84489 3 33.4
      vertex 2.84489 3 67.4
    endloop
  endfacet
  facet normal 0.781831 -0.62349 0
    outer loop
      vertex -2.84489 3 33.4
      vertex -2.61866 3.28369 67.4
      vertex -2.84489 3 67.4
    endloop
  endfacet
  facet normal 0.781831 -0.62349 0
    outer loop
      vertex -2.61866 3.28369 67.4
      vertex -2.84489 3 33.4
      vertex -2.61866 3.28369 11
    endloop
  endfacet
  facet normal 0.781831 -0.62349 0
    outer loop
      vertex -3.78407 1.82231 11
      vertex -2.84489 3 33.4
      vertex -3.78407 1.82231 33.4
    endloop
  endfacet
  facet normal 0.781831 -0.62349 -2.05682e-09
    outer loop
      vertex -2.84489 3 33.4
      vertex -3.78407 1.82231 11
      vertex -2.61866 3.28369 11
    endloop
  endfacet
  facet normal 0.433884 -0.900969 0
    outer loop
      vertex -2.61866 3.28369 11
      vertex -0.934587 4.0947 67.4
      vertex -2.61866 3.28369 67.4
    endloop
  endfacet
  facet normal 0.433884 -0.900969 0
    outer loop
      vertex -0.934587 4.0947 67.4
      vertex -2.61866 3.28369 11
      vertex -0.934587 4.0947 11
    endloop
  endfacet
  facet normal -0.974928 0.222521 0
    outer loop
      vertex 3.78407 -1.82231 11
      vertex 4.2 0 33.4
      vertex 4.2 0 11
    endloop
  endfacet
  facet normal -0.974928 0.222521 0
    outer loop
      vertex 4.2 0 33.4
      vertex 3.78407 -1.82231 11
      vertex 3.78407 -1.82231 33.4
    endloop
  endfacet
  facet normal -0.781831 0.62349 0
    outer loop
      vertex 2.61866 -3.28369 11
      vertex 3.78407 -1.82231 33.4
      vertex 3.78407 -1.82231 11
    endloop
  endfacet
  facet normal -0.781831 0.62349 0
    outer loop
      vertex 3.78407 -1.82231 33.4
      vertex 2.61866 -3.28369 11
      vertex 2.61866 -3.28369 33.4
    endloop
  endfacet
  facet normal 0.433884 0.900969 -0
    outer loop
      vertex -0.934587 -4.0947 11
      vertex -2.61866 -3.28369 33.4
      vertex -0.934587 -4.0947 33.4
    endloop
  endfacet
  facet normal 0.433884 0.900969 0
    outer loop
      vertex -2.61866 -3.28369 33.4
      vertex -0.934587 -4.0947 11
      vertex -2.61866 -3.28369 11
    endloop
  endfacet
  facet normal 0.781831 0.62349 0
    outer loop
      vertex -2.61866 -3.28369 33.4
      vertex -3.78407 -1.82231 11
      vertex -3.78407 -1.82231 33.4
    endloop
  endfacet
  facet normal 0.781831 0.62349 0
    outer loop
      vertex -3.78407 -1.82231 11
      vertex -2.61866 -3.28369 33.4
      vertex -2.61866 -3.28369 11
    endloop
  endfacet
  facet normal 0.974928 0.222521 0
    outer loop
      vertex -3.78407 -1.82231 33.4
      vertex -4.2 0 11
      vertex -4.2 0 33.4
    endloop
  endfacet
  facet normal 0.974928 0.222521 0
    outer loop
      vertex -4.2 0 11
      vertex -3.78407 -1.82231 33.4
      vertex -3.78407 -1.82231 11
    endloop
  endfacet
  facet normal 1 0 0
    outer loop
      vertex 12 2 31.4
      vertex 12 6 33.4
      vertex 12 2 33.4
    endloop
  endfacet
  facet normal 1 0 0
    outer loop
      vertex 12 6 33.4
      vertex 12 2 31.4
      vertex 12 6 2
    endloop
  endfacet
  facet normal 1 0 0
    outer loop
      vertex 12 -6 2
      vertex 12 2 31.4
      vertex 12 -6 31.4
    endloop
  endfacet
  facet normal 1 0 0
    outer loop
      vertex 12 2 31.4
      vertex 12 -6 2
      vertex 12 6 2
    endloop
  endfacet
  facet normal 0 0 -1
    outer loop
      vertex 12 -6 31.4
      vertex 42.4 2 31.4
      vertex 42.4 -6 31.4
    endloop
  endfacet
  facet normal -0 0 -1
    outer loop
      vertex 42.4 2 31.4
      vertex 12 -6 31.4
      vertex 12 2 31.4
    endloop
  endfacet
  facet normal -1 0 0
    outer loop
      vertex 42.4 6 2
      vertex 42.4 2 31.4
      vertex 42.4 6 33.4
    endloop
  endfacet
  facet normal -1 0 0
    outer loop
      vertex 42.4 -6 2
      vertex 42.4 2 31.4
      vertex 42.4 6 2
    endloop
  endfacet
  facet normal -1 -0 0
    outer loop
      vertex 42.4 2 31.4
      vertex 42.4 -6 2
      vertex 42.4 -6 31.4
    endloop
  endfacet
  facet normal -1 -0 0
    outer loop
      vertex 42.4 6 33.4
      vertex 42.4 2 31.4
      vertex 42.4 2 33.4
    endloop
  endfacet
  facet normal -0 0 1
    outer loop
      vertex 12 6 2
      vertex 42.4 -6 2
      vertex 42.4 6 2
    endloop
  endfacet
  facet normal 0 0 1
    outer loop
      vertex 42.4 -6 2
      vertex 12 6 2
      vertex 12 -6 2
    endloop
  endfacet
  facet normal 0 1 -0
    outer loop
      vertex 42.4 2 31.4
      vertex 12 2 33.4
      vertex 42.4 2 33.4
    endloop
  endfacet
  facet normal 0 1 0
    outer loop
      vertex 12 2 33.4
      vertex 42.4 2 31.4
      vertex 12 2 31.4
    endloop
  endfacet
  facet normal 0 -1 0
    outer loop
      vertex 2.84489 3 33.4
      vertex 6 3 67.4
      vertex 2.84489 3 67.4
    endloop
  endfacet
  facet normal 0 -1 -0
    outer loop
      vertex 6 3 67.4
      vertex 2.84489 3 33.4
      vertex 6 3 33.4
    endloop
  endfacet
  facet normal 0 -1 0
    outer loop
      vertex -6 3 33.4
      vertex -2.84489 3 67.4
      vertex -6 3 67.4
    endloop
  endfacet
  facet normal 0 -1 -0
    outer loop
      vertex -2.84489 3 67.4
      vertex -6 3 33.4
      vertex -2.84489 3 33.4
    endloop
  endfacet
endsolid OpenSCAD_Model
