solid OpenSCAD_Model
  facet normal -0 0 1
    outer loop
      vertex 28 22 29
      vertex 68 -28 29
      vertex 68 22 29
    endloop
  endfacet
  facet normal 0 0 1
    outer loop
      vertex 68 -28 29
      vertex 28 22 29
      vertex 28 -28 29
    endloop
  endfacet
  facet normal 0 -0.992115 0.125333
    outer loop
      vertex 28 -34.4921 3.75116
      vertex 68 -34.4291 4.24953
      vertex 28 -34.4291 4.24953
    endloop
  endfacet
  facet normal 0 -0.992115 0.125333
    outer loop
      vertex 68 -34.4291 4.24953
      vertex 28 -34.4921 3.75116
      vertex 68 -34.4921 3.75116
    endloop
  endfacet
  facet normal 2.37948e-08 0.0627898 -0.998027
    outer loop
      vertex 68 -30.5 -0.499999
      vertex 28 -30.5 -0.5
      vertex 68 -29.9987 -0.468458
    endloop
  endfacet
  facet normal 0 -0.967865 0.25147
    outer loop
      vertex 28 -34.3042 4.73607
      vertex 68 -28 29
      vertex 28 -28 29
    endloop
  endfacet
  facet normal 0 -0.967865 0.25147
    outer loop
      vertex 68 -28 29
      vertex 28 -34.3042 4.73607
      vertex 68 -34.3042 4.73607
    endloop
  endfacet
  facet normal 0 1 -0
    outer loop
      vertex 68 -26 0
      vertex 28 -26 27
      vertex 68 -26 27
    endloop
  endfacet
  facet normal 0 1 0
    outer loop
      vertex 28 -26 27
      vertex 68 -26 0
      vertex 28 -26 0
    endloop
  endfacet
  facet normal 0 0.116358 -0.993207
    outer loop
      vertex 28 -29.9987 -0.468458
      vertex 68 -26 0
      vertex 68 -29.9987 -0.468458
    endloop
  endfacet
  facet normal 0 0.116358 -0.993207
    outer loop
      vertex 68 -26 0
      vertex 28 -29.9987 -0.468458
      vertex 28 -26 0
    endloop
  endfacet
  facet normal 0 0.0627917 -0.998027
    outer loop
      vertex 68 -29.9987 -0.468458
      vertex 28 -30.5 -0.5
      vertex 28 -29.9987 -0.468458
    endloop
  endfacet
  facet normal 0 -0.968583 0.248691
    outer loop
      vertex 28 -34.4291 4.24953
      vertex 68 -34.3042 4.73607
      vertex 28 -34.3042 4.73607
    endloop
  endfacet
  facet normal 0 -0.968583 0.248691
    outer loop
      vertex 68 -34.3042 4.73607
      vertex 28 -34.4291 4.24953
      vertex 68 -34.4291 4.24953
    endloop
  endfacet
  facet normal -0 -0.062792 -0.998027
    outer loop
      vertex 68 -31.0013 -0.468458
      vertex 28 -31.0013 -0.468458
      vertex 28 -30.5 -0.5
    endloop
  endfacet
  facet normal 0 -0.637424 -0.770513
    outer loop
      vertex 28 -33.2382 0.584125
      vertex 68 -32.8511 0.263931
      vertex 68 -33.2382 0.584125
    endloop
  endfacet
  facet normal -0 -0.637424 -0.770513
    outer loop
      vertex 68 -32.8511 0.263931
      vertex 28 -33.2382 0.584125
      vertex 28 -32.8511 0.263931
    endloop
  endfacet
  facet normal 0 -0.929777 -0.368124
    outer loop
      vertex 28 -34.1193 1.79688
      vertex 68 -34.3042 2.26393
      vertex 28 -34.3042 2.26393
    endloop
  endfacet
  facet normal 0 -0.929777 -0.368124
    outer loop
      vertex 68 -34.3042 2.26393
      vertex 28 -34.1193 1.79688
      vertex 68 -34.1193 1.79688
    endloop
  endfacet
  facet normal 0 -0.18738 -0.982287
    outer loop
      vertex 28 -31.4948 -0.374332
      vertex 68 -31.0013 -0.468458
      vertex 68 -31.4948 -0.374332
    endloop
  endfacet
  facet normal -0 -0.18738 -0.982287
    outer loop
      vertex 68 -31.0013 -0.468458
      vertex 28 -31.4948 -0.374332
      vertex 28 -31.0013 -0.468458
    endloop
  endfacet
  facet normal 0 -0.968583 -0.248691
    outer loop
      vertex 28 -34.3042 2.26393
      vertex 68 -34.4291 2.75047
      vertex 28 -34.4291 2.75047
    endloop
  endfacet
  facet normal 0 -0.968583 -0.248691
    outer loop
      vertex 68 -34.4291 2.75047
      vertex 28 -34.3042 2.26393
      vertex 68 -34.3042 2.26393
    endloop
  endfacet
  facet normal 0 -0.72897 -0.684546
    outer loop
      vertex 28 -33.2382 0.584125
      vertex 68 -33.5821 0.950304
      vertex 28 -33.5821 0.950304
    endloop
  endfacet
  facet normal 0 -0.72897 -0.684546
    outer loop
      vertex 68 -33.5821 0.950304
      vertex 28 -33.2382 0.584125
      vertex 68 -33.2382 0.584125
    endloop
  endfacet
  facet normal 2.37948e-08 -0.0627901 -0.998027
    outer loop
      vertex 68 -31.0013 -0.468458
      vertex 28 -30.5 -0.5
      vertex 68 -30.5 -0.499999
    endloop
  endfacet
  facet normal 1 0 0
    outer loop
      vertex 68 22 29
      vertex 68 -26 27
      vertex 68 22 27
    endloop
  endfacet
  facet normal 1 -0 0
    outer loop
      vertex 68 -28 29
      vertex 68 -26 27
      vertex 68 22 29
    endloop
  endfacet
  facet normal 1 0 0
    outer loop
      vertex 68 -34.3042 4.73607
      vertex 68 -26 27
      vertex 68 -28 29
    endloop
  endfacet
  facet normal 1 0 0
    outer loop
      vertex 68 -26 27
      vertex 68 -34.3042 4.73607
      vertex 68 -26 0
    endloop
  endfacet
  facet normal 1 0 0
    outer loop
      vertex 68 -26 0
      vertex 68 -34.3042 4.73607
      vertex 68 -29.9987 -0.468458
    endloop
  endfacet
  facet normal 1 0 0
    outer loop
      vertex 68 -29.9987 -0.468458
      vertex 68 -34.3042 4.73607
      vertex 68 -30.5 -0.499999
    endloop
  endfacet
  facet normal 1 0 0
    outer loop
      vertex 68 -30.5 -0.499999
      vertex 68 -34.3042 4.73607
      vertex 68 -31.0013 -0.468458
    endloop
  endfacet
  facet normal 1 0 0
    outer loop
      vertex 68 -31.0013 -0.468458
      vertex 68 -34.3042 4.73607
      vertex 68 -31.4948 -0.374332
    endloop
  endfacet
  facet normal 1 0 0
    outer loop
      vertex 68 -31.4948 -0.374332
      vertex 68 -34.3042 4.73607
      vertex 68 -31.9725 -0.219106
    endloop
  endfacet
  facet normal 1 0 0
    outer loop
      vertex 68 -31.9725 -0.219106
      vertex 68 -34.3042 4.73607
      vertex 68 -32.427 -0.00522614
    endloop
  endfacet
  facet normal 1 0 0
    outer loop
      vertex 68 -32.427 -0.00522614
      vertex 68 -34.3042 4.73607
      vertex 68 -32.8511 0.263931
    endloop
  endfacet
  facet normal 1 0 0
    outer loop
      vertex 68 -32.8511 0.263931
      vertex 68 -34.3042 4.73607
      vertex 68 -33.2382 0.584125
    endloop
  endfacet
  facet normal 1 0 0
    outer loop
      vertex 68 -33.2382 0.584125
      vertex 68 -34.3042 4.73607
      vertex 68 -33.5821 0.950304
    endloop
  endfacet
  facet normal 1 0 0
    outer loop
      vertex 68 -33.5821 0.950304
      vertex 68 -34.3042 4.73607
      vertex 68 -33.8773 1.35669
    endloop
  endfacet
  facet normal 1 0 0
    outer loop
      vertex 68 -33.8773 1.35669
      vertex 68 -34.3042 4.73607
      vertex 68 -34.1193 1.79688
    endloop
  endfacet
  facet normal 1 0 0
    outer loop
      vertex 68 -34.3042 4.73607
      vertex 68 -34.3042 2.26393
      vertex 68 -34.1193 1.79688
    endloop
  endfacet
  facet normal 1 -0 0
    outer loop
      vertex 68 -34.4291 4.24953
      vertex 68 -34.3042 2.26393
      vertex 68 -34.3042 4.73607
    endloop
  endfacet
  facet normal 1 0 0
    outer loop
      vertex 68 -34.4291 4.24953
      vertex 68 -34.4291 2.75047
      vertex 68 -34.3042 2.26393
    endloop
  endfacet
  facet normal 1 -0 0
    outer loop
      vertex 68 -34.4921 3.75116
      vertex 68 -34.4291 2.75047
      vertex 68 -34.4291 4.24953
    endloop
  endfacet
  facet normal 1 0 0
    outer loop
      vertex 68 -34.4291 2.75047
      vertex 68 -34.4921 3.75116
      vertex 68 -34.4921 3.24884
    endloop
  endfacet
  facet normal 0 -0.809018 -0.587784
    outer loop
      vertex 28 -33.5821 0.950304
      vertex 68 -33.8773 1.35669
      vertex 28 -33.8773 1.35669
    endloop
  endfacet
  facet normal 0 -0.809018 -0.587784
    outer loop
      vertex 68 -33.8773 1.35669
      vertex 28 -33.5821 0.950304
      vertex 68 -33.5821 0.950304
    endloop
  endfacet
  facet normal -1 0 0
    outer loop
      vertex 28 -34.3042 4.73607
      vertex 28 -26 27
      vertex 28 -26 0
    endloop
  endfacet
  facet normal -1 0 0
    outer loop
      vertex 28 -34.3042 4.73607
      vertex 28 -26 0
      vertex 28 -29.9987 -0.468458
    endloop
  endfacet
  facet normal -1 0 0
    outer loop
      vertex 28 -34.3042 4.73607
      vertex 28 -29.9987 -0.468458
      vertex 28 -30.5 -0.5
    endloop
  endfacet
  facet normal -1 0 0
    outer loop
      vertex 28 -34.3042 4.73607
      vertex 28 -30.5 -0.5
      vertex 28 -31.0013 -0.468458
    endloop
  endfacet
  facet normal -1 0 0
    outer loop
      vertex 28 -34.3042 4.73607
      vertex 28 -31.0013 -0.468458
      vertex 28 -31.4948 -0.374332
    endloop
  endfacet
  facet normal -1 0 0
    outer loop
      vertex 28 -34.3042 4.73607
      vertex 28 -31.4948 -0.374332
      vertex 28 -31.9725 -0.219106
    endloop
  endfacet
  facet normal -1 0 0
    outer loop
      vertex 28 -34.3042 4.73607
      vertex 28 -31.9725 -0.219106
      vertex 28 -32.427 -0.00522614
    endloop
  endfacet
  facet normal -1 0 0
    outer loop
      vertex 28 -34.3042 4.73607
      vertex 28 -32.427 -0.00522614
      vertex 28 -32.8511 0.263931
    endloop
  endfacet
  facet normal -1 0 0
    outer loop
      vertex 28 -34.3042 4.73607
      vertex 28 -32.8511 0.263931
      vertex 28 -33.2382 0.584125
    endloop
  endfacet
  facet normal -1 0 0
    outer loop
      vertex 28 -34.3042 4.73607
      vertex 28 -33.2382 0.584125
      vertex 28 -33.5821 0.950304
    endloop
  endfacet
  facet normal -1 0 0
    outer loop
      vertex 28 -34.3042 4.73607
      vertex 28 -33.5821 0.950304
      vertex 28 -33.8773 1.35669
    endloop
  endfacet
  facet normal -1 0 0
    outer loop
      vertex 28 -34.3042 4.73607
      vertex 28 -33.8773 1.35669
      vertex 28 -34.1193 1.79688
    endloop
  endfacet
  facet normal -1 0 0
    outer loop
      vertex 28 -34.3042 4.73607
      vertex 28 -34.1193 1.79688
      vertex 28 -34.3042 2.26393
    endloop
  endfacet
  facet normal -1 -0 0
    outer loop
      vertex 28 -26 27
      vertex 28 -34.3042 4.73607
      vertex 28 -28 29
    endloop
  endfacet
  facet normal -1 0 0
    outer loop
      vertex 28 -34.4291 2.75047
      vertex 28 -34.3042 4.73607
      vertex 28 -34.3042 2.26393
    endloop
  endfacet
  facet normal -1 0 0
    outer loop
      vertex 28 -34.4291 2.75047
      vertex 28 -34.4291 4.24953
      vertex 28 -34.3042 4.73607
    endloop
  endfacet
  facet normal -1 0 0
    outer loop
      vertex 28 -34.4921 3.24884
      vertex 28 -34.4291 4.24953
      vertex 28 -34.4291 2.75047
    endloop
  endfacet
  facet normal -1 0 0
    outer loop
      vertex 28 -34.4291 4.24953
      vertex 28 -34.4921 3.24884
      vertex 28 -34.4921 3.75116
    endloop
  endfacet
  facet normal -1 0 0
    outer loop
      vertex 28 -26 27
      vertex 28 22 29
      vertex 28 22 27
    endloop
  endfacet
  facet normal -1 -0 0
    outer loop
      vertex 28 22 29
      vertex 28 -26 27
      vertex 28 -28 29
    endloop
  endfacet
  facet normal 0 -0.425781 -0.904826
    outer loop
      vertex 28 -32.427 -0.00522614
      vertex 68 -31.9725 -0.219106
      vertex 68 -32.427 -0.00522614
    endloop
  endfacet
  facet normal -0 -0.425781 -0.904826
    outer loop
      vertex 68 -31.9725 -0.219106
      vertex 28 -32.427 -0.00522614
      vertex 28 -31.9725 -0.219106
    endloop
  endfacet
  facet normal 0 -0.309017 -0.951057
    outer loop
      vertex 28 -31.9725 -0.219106
      vertex 68 -31.4948 -0.374332
      vertex 68 -31.9725 -0.219106
    endloop
  endfacet
  facet normal -0 -0.309017 -0.951057
    outer loop
      vertex 68 -31.4948 -0.374332
      vertex 28 -31.9725 -0.219106
      vertex 28 -31.4948 -0.374332
    endloop
  endfacet
  facet normal 0 -0.876307 -0.481754
    outer loop
      vertex 28 -33.8773 1.35669
      vertex 68 -34.1193 1.79688
      vertex 28 -34.1193 1.79688
    endloop
  endfacet
  facet normal 0 -0.876307 -0.481754
    outer loop
      vertex 68 -34.1193 1.79688
      vertex 28 -33.8773 1.35669
      vertex 68 -33.8773 1.35669
    endloop
  endfacet
  facet normal 0 -0.992115 -0.125333
    outer loop
      vertex 28 -34.4291 2.75047
      vertex 68 -34.4921 3.24884
      vertex 28 -34.4921 3.24884
    endloop
  endfacet
  facet normal 0 -0.992115 -0.125333
    outer loop
      vertex 68 -34.4921 3.24884
      vertex 28 -34.4291 2.75047
      vertex 68 -34.4291 2.75047
    endloop
  endfacet
  facet normal 0 -1 0
    outer loop
      vertex 28 -34.4921 3.24884
      vertex 68 -34.4921 3.75116
      vertex 28 -34.4921 3.75116
    endloop
  endfacet
  facet normal 0 -1 -0
    outer loop
      vertex 68 -34.4921 3.75116
      vertex 28 -34.4921 3.24884
      vertex 68 -34.4921 3.24884
    endloop
  endfacet
  facet normal 0 -0.535822 -0.844331
    outer loop
      vertex 28 -32.8511 0.263931
      vertex 68 -32.427 -0.00522614
      vertex 68 -32.8511 0.263931
    endloop
  endfacet
  facet normal -0 -0.535822 -0.844331
    outer loop
      vertex 68 -32.427 -0.00522614
      vertex 28 -32.8511 0.263931
      vertex 28 -32.427 -0.00522614
    endloop
  endfacet
  facet normal 0 0 -1
    outer loop
      vertex 28 -26 27
      vertex 68 22 27
      vertex 68 -26 27
    endloop
  endfacet
  facet normal -0 0 -1
    outer loop
      vertex 68 22 27
      vertex 28 -26 27
      vertex 28 22 27
    endloop
  endfacet
  facet normal 0 1 -0
    outer loop
      vertex 68 22 27
      vertex 28 22 29
      vertex 68 22 29
    endloop
  endfacet
  facet normal 0 1 0
    outer loop
      vertex 28 22 29
      vertex 68 22 27
      vertex 28 22 27
    endloop
  endfacet
endsolid OpenSCAD_Model
