solid OpenSCAD_Model
  facet normal -1 0 0
    outer loop
      vertex 0 0 0
      vertex 0 6.3 10
      vertex 0 6.3 0
    endloop
  endfacet
  facet normal -1 -0 0
    outer loop
      vertex 0 6.3 10
      vertex 0 0 0
      vertex 0 0 10
    endloop
  endfacet
  facet normal 0 0 1
    outer loop
      vertex 20 6.3 10
      vertex 1 5.65 10
      vertex 20 5.65 10
    endloop
  endfacet
  facet normal 0 0 1
    outer loop
      vertex 1 5.65 10
      vertex 0 6.3 10
      vertex 1 0.65 10
    endloop
  endfacet
  facet normal -0 0 1
    outer loop
      vertex 0 6.3 10
      vertex 1 5.65 10
      vertex 20 6.3 10
    endloop
  endfacet
  facet normal -0 0 1
    outer loop
      vertex 1 0.65 10
      vertex 20 0 10
      vertex 20 0.65 10
    endloop
  endfacet
  facet normal 0 0 1
    outer loop
      vertex 1 0.65 10
      vertex 0 0 10
      vertex 20 0 10
    endloop
  endfacet
  facet normal 0 0 1
    outer loop
      vertex 0 0 10
      vertex 1 0.65 10
      vertex 0 6.3 10
    endloop
  endfacet
  facet normal 1 0 0
    outer loop
      vertex 20 0.65 10
      vertex 20 0 10
      vertex 20 0.65 1
    endloop
  endfacet
  facet normal 1 0 0
    outer loop
      vertex 20 5.65 1
      vertex 20 6.3 10
      vertex 20 5.65 10
    endloop
  endfacet
  facet normal 1 0 0
    outer loop
      vertex 20 6.3 10
      vertex 20 5.65 1
      vertex 20 6.3 0
    endloop
  endfacet
  facet normal 1 -0 0
    outer loop
      vertex 20 0.65 1
      vertex 20 6.3 0
      vertex 20 5.65 1
    endloop
  endfacet
  facet normal 1 0 0
    outer loop
      vertex 20 0.65 1
      vertex 20 0 0
      vertex 20 6.3 0
    endloop
  endfacet
  facet normal 1 0 0
    outer loop
      vertex 20 0 0
      vertex 20 0.65 1
      vertex 20 0 10
    endloop
  endfacet
  facet normal 0 1 -0
    outer loop
      vertex 20 6.3 0
      vertex 0 6.3 10
      vertex 20 6.3 10
    endloop
  endfacet
  facet normal 0 1 0
    outer loop
      vertex 0 6.3 10
      vertex 20 6.3 0
      vertex 0 6.3 0
    endloop
  endfacet
  facet normal 0 0 -1
    outer loop
      vertex 0 0 0
      vertex 20 6.3 0
      vertex 20 0 0
    endloop
  endfacet
  facet normal -0 0 -1
    outer loop
      vertex 20 6.3 0
      vertex 0 0 0
      vertex 0 6.3 0
    endloop
  endfacet
  facet normal 0 -1 0
    outer loop
      vertex 0 0 0
      vertex 20 0 10
      vertex 0 0 10
    endloop
  endfacet
  facet normal 0 -1 -0
    outer loop
      vertex 20 0 10
      vertex 0 0 0
      vertex 20 0 0
    endloop
  endfacet
  facet normal 1 -0 0
    outer loop
      vertex 1 0.65 10
      vertex 1 5.65 1
      vertex 1 5.65 10
    endloop
  endfacet
  facet normal 1 0 0
    outer loop
      vertex 1 5.65 1
      vertex 1 0.65 10
      vertex 1 0.65 1
    endloop
  endfacet
  facet normal 0 -1 0
    outer loop
      vertex 1 5.65 1
      vertex 20 5.65 10
      vertex 1 5.65 10
    endloop
  endfacet
  facet normal 0 -1 -0
    outer loop
      vertex 20 5.65 10
      vertex 1 5.65 1
      vertex 20 5.65 1
    endloop
  endfacet
  facet normal -0 0 1
    outer loop
      vertex 1 5.65 1
      vertex 20 0.65 1
      vertex 20 5.65 1
    endloop
  endfacet
  facet normal 0 0 1
    outer loop
      vertex 20 0.65 1
      vertex 1 5.65 1
      vertex 1 0.65 1
    endloop
  endfacet
  facet normal 0 1 -0
    outer loop
      vertex 20 0.65 1
      vertex 1 0.65 10
      vertex 20 0.65 10
    endloop
  endfacet
  facet normal 0 1 0
    outer loop
      vertex 1 0.65 10
      vertex 20 0.65 1
      vertex 1 0.65 1
    endloop
  endfacet
endsolid OpenSCAD_Model
