solid OpenSCAD_Model
  facet normal -1 0 0
    outer loop
      vertex 0 9.40588 0
      vertex 0 0 0
      vertex 0 9.40588 7
    endloop
  endfacet
  facet normal -1 0 0
    outer loop
      vertex 0 9.40588 7
      vertex 0 10 12
      vertex 0 10 7
    endloop
  endfacet
  facet normal -1 0 0
    outer loop
      vertex 0 0 12
      vertex 0 9.40588 7
      vertex 0 0 0
    endloop
  endfacet
  facet normal -1 0 0
    outer loop
      vertex 0 9.40588 7
      vertex 0 0 12
      vertex 0 10 12
    endloop
  endfacet
  facet normal -0 0 1
    outer loop
      vertex 0 10 12
      vertex 3.9 0 12
      vertex 3.9 10 12
    endloop
  endfacet
  facet normal 0 0 1
    outer loop
      vertex 3.9 0 12
      vertex 0 10 12
      vertex 0 0 12
    endloop
  endfacet
  facet normal -0 0 1
    outer loop
      vertex 10.1 10 12
      vertex 14 0 12
      vertex 14 10 12
    endloop
  endfacet
  facet normal 0 0 1
    outer loop
      vertex 14 0 12
      vertex 10.1 10 12
      vertex 10.1 0 12
    endloop
  endfacet
  facet normal 1 -0 0
    outer loop
      vertex 14 0 12
      vertex 14 10 4
      vertex 14 10 12
    endloop
  endfacet
  facet normal 1 0 0
    outer loop
      vertex 14 0 0
      vertex 14 10 4
      vertex 14 0 12
    endloop
  endfacet
  facet normal 1 0 0
    outer loop
      vertex 14 10 4
      vertex 14 0 0
      vertex 14 10 0
    endloop
  endfacet
  facet normal 0 1 -0
    outer loop
      vertex 10.8997 36 0
      vertex 3.17115 36 4
      vertex 10.8997 36 4
    endloop
  endfacet
  facet normal 0 1 0
    outer loop
      vertex 3.17115 36 4
      vertex 10.8997 36 0
      vertex 3.17115 36 0
    endloop
  endfacet
  facet normal 0 0 -1
    outer loop
      vertex 0 9.40588 0
      vertex 14 10 0
      vertex 14 0 0
    endloop
  endfacet
  facet normal 0 -0 -1
    outer loop
      vertex 3.17115 36 0
      vertex 14 10 0
      vertex 0 9.40588 0
    endloop
  endfacet
  facet normal 0 0 -1
    outer loop
      vertex 0 9.40588 0
      vertex 14 0 0
      vertex 0 0 0
    endloop
  endfacet
  facet normal 0 0 -1
    outer loop
      vertex 14 10 0
      vertex 3.17115 36 0
      vertex 10.8997 36 0
    endloop
  endfacet
  facet normal 0 -1 0
    outer loop
      vertex 0 0 12
      vertex 3.9 0 4
      vertex 3.9 0 12
    endloop
  endfacet
  facet normal 0 -1 -0
    outer loop
      vertex 3.9 0 4
      vertex 0 0 0
      vertex 10.1 0 4
    endloop
  endfacet
  facet normal 0 -1 0
    outer loop
      vertex 0 0 0
      vertex 3.9 0 4
      vertex 0 0 12
    endloop
  endfacet
  facet normal 0 -1 0
    outer loop
      vertex 10.1 0 4
      vertex 14 0 12
      vertex 10.1 0 12
    endloop
  endfacet
  facet normal 0 -1 0
    outer loop
      vertex 10.1 0 4
      vertex 14 0 0
      vertex 14 0 12
    endloop
  endfacet
  facet normal 0 -1 0
    outer loop
      vertex 14 0 0
      vertex 10.1 0 4
      vertex 0 0 0
    endloop
  endfacet
  facet normal 1 -0 0
    outer loop
      vertex 3.9 0 12
      vertex 3.9 10 4
      vertex 3.9 10 12
    endloop
  endfacet
  facet normal 1 0 0
    outer loop
      vertex 3.9 10 4
      vertex 3.9 0 12
      vertex 3.9 0 4
    endloop
  endfacet
  facet normal -1 0 0
    outer loop
      vertex 10.1 0 4
      vertex 10.1 10 12
      vertex 10.1 10 4
    endloop
  endfacet
  facet normal -1 -0 0
    outer loop
      vertex 10.1 10 12
      vertex 10.1 0 4
      vertex 10.1 0 12
    endloop
  endfacet
  facet normal 0 0 1
    outer loop
      vertex 10.8997 36 4
      vertex 10.1 10 4
      vertex 14 10 4
    endloop
  endfacet
  facet normal 0 0 1
    outer loop
      vertex 10.1 10 4
      vertex 3.9 10 4
      vertex 10.1 0 4
    endloop
  endfacet
  facet normal 0 0 1
    outer loop
      vertex 10.8997 36 4
      vertex 3.9 10 4
      vertex 10.1 10 4
    endloop
  endfacet
  facet normal -0 0 1
    outer loop
      vertex 3.17115 36 4
      vertex 3.9 10 4
      vertex 10.8997 36 4
    endloop
  endfacet
  facet normal 0 0 1
    outer loop
      vertex 3.9 10 4
      vertex 3.17115 36 4
      vertex 0.0708442 10 4
    endloop
  endfacet
  facet normal 0 0 1
    outer loop
      vertex 10.1 0 4
      vertex 3.9 10 4
      vertex 3.9 0 4
    endloop
  endfacet
  facet normal 0 1 0
    outer loop
      vertex 3.9 10 12
      vertex 0.0708442 10 7
      vertex 0 10 12
    endloop
  endfacet
  facet normal 0 1 -0
    outer loop
      vertex 3.9 10 4
      vertex 0.0708442 10 7
      vertex 3.9 10 12
    endloop
  endfacet
  facet normal 0 1 0
    outer loop
      vertex 0.0708442 10 7
      vertex 3.9 10 4
      vertex 0.0708442 10 4
    endloop
  endfacet
  facet normal 0 1 0
    outer loop
      vertex 0 10 12
      vertex 0.0708442 10 7
      vertex 0 10 7
    endloop
  endfacet
  facet normal 0 1 -0
    outer loop
      vertex 14 10 4
      vertex 10.1 10 12
      vertex 14 10 12
    endloop
  endfacet
  facet normal 0 1 0
    outer loop
      vertex 10.1 10 12
      vertex 14 10 4
      vertex 10.1 10 4
    endloop
  endfacet
  facet normal 0.992966 0.118404 0
    outer loop
      vertex 14 10 4
      vertex 10.8997 36 0
      vertex 10.8997 36 4
    endloop
  endfacet
  facet normal 0.992966 0.118404 0
    outer loop
      vertex 10.8997 36 0
      vertex 14 10 4
      vertex 14 10 0
    endloop
  endfacet
  facet normal 0 0 -1
    outer loop
      vertex 0 10 7
      vertex 0.0708442 10 7
      vertex 0 9.40588 7
    endloop
  endfacet
  facet normal -0.992966 0.118404 0
    outer loop
      vertex 3.17115 36 0
      vertex 0.0708442 10 4
      vertex 3.17115 36 4
    endloop
  endfacet
  facet normal -0.992966 0.118404 9.72768e-09
    outer loop
      vertex 0 9.40588 0
      vertex 0.0708442 10 4
      vertex 3.17115 36 0
    endloop
  endfacet
  facet normal -0.992966 0.118404 0
    outer loop
      vertex 0 9.40588 7
      vertex 0.0708442 10 4
      vertex 0 9.40588 0
    endloop
  endfacet
  facet normal -0.992966 0.118404 0
    outer loop
      vertex 0.0708442 10 4
      vertex 0 9.40588 7
      vertex 0.0708442 10 7
    endloop
  endfacet
endsolid OpenSCAD_Model
